<svg xmlns="http://www.w3.org/2000/svg" viewBox="0 0 420 280" width="420" height="280" font-family="monospace">
  <defs>
    <pattern id="dot2" width="14" height="14" patternUnits="userSpaceOnUse">
      <circle cx="1" cy="1" r="1" fill="#E5E5E5"/>
    </pattern>
  </defs>
  <rect width="420" height="280" fill="#FFFFFF"/>
  <rect width="280" height="280" fill="url(#dot2)"/>
  <g transform="translate(30,50)">
    <rect x="0" y="0" width="220" height="170" fill="none" stroke="#0A0A0A" stroke-width="2"/>
    <line x1="110" y1="0" x2="110" y2="170" stroke="#0A0A0A" stroke-width="1.5"/>
    <line x1="0" y1="90" x2="110" y2="90" stroke="#0A0A0A" stroke-width="1.5"/>
    <rect x="110" y="2" width="108" height="80" fill="#FF4B1F" opacity="0.45" stroke="#FF4B1F" stroke-width="2"/>
    <text x="164" y="46" font-size="10" fill="#0A0A0A" text-anchor="middle">BATH ◉</text>
  </g>
  <g transform="translate(280,0)">
    <rect width="140" height="280" fill="#FFFFFF"/>
    <line x1="0" y1="0" x2="0" y2="280" stroke="#E5E5E5"/>
    <text x="12" y="30" font-size="11" font-weight="700" fill="#0A0A0A">BATH</text>
    <text x="12" y="60" font-size="9" fill="#9B9B9B">Width</text>
    <rect x="12" y="66" width="116" height="18" fill="none" stroke="#E5E5E5"/>
    <text x="18" y="79" font-size="10" fill="#0A0A0A">2.4 m</text>
    <text x="12" y="104" font-size="9" fill="#9B9B9B">Length</text>
    <rect x="12" y="110" width="116" height="18" fill="none" stroke="#E5E5E5"/>
    <text x="18" y="123" font-size="10" fill="#0A0A0A">3.2 m</text>
    <text x="12" y="148" font-size="9" fill="#9B9B9B">Material</text>
    <rect x="12" y="154" width="116" height="18" fill="none" stroke="#E5E5E5"/>
    <text x="18" y="167" font-size="10" fill="#0A0A0A">Ceramic</text>
    <rect x="12" y="200" width="116" height="22" fill="#FF4B1F"/>
    <text x="70" y="215" font-size="10" fill="#FFFFFF" text-anchor="middle" font-weight="700">REPLACE</text>
  </g>
</svg>
