<svg xmlns="http://www.w3.org/2000/svg" viewBox="0 0 420 280" width="420" height="280" font-family="monospace">
  <defs>
    <symbol id="mp-s" viewBox="0 0 200 140">
      <rect x="10" y="10" width="180" height="120" fill="none" stroke="#D4FF3A" stroke-width="2"/>
      <line x1="90" y1="10" x2="90" y2="130" stroke="#D4FF3A" stroke-width="1.5"/>
      <line x1="10" y1="70" x2="90" y2="70" stroke="#D4FF3A" stroke-width="1.5"/>
      <line x1="140" y1="10" x2="140" y2="75" stroke="#D4FF3A" stroke-width="1.5"/>
      <rect x="12" y="12" width="76" height="56" fill="#D4FF3A" opacity="0.35"/>
      <rect x="140" y="12" width="48" height="61" fill="#D4FF3A" opacity="0.45"/>
    </symbol>
  </defs>
  <rect width="420" height="280" fill="#0A0A0A"/>
  <g font-size="9" fill="#FAFAFA">
    <g transform="translate(12,12)">
      <rect width="196" height="126" fill="#141414" stroke="#1F1F1F"/>
      <rect x="6" y="6" width="184" height="78" fill="#0A0A0A"/>
      <use href="#mp-s" x="10" y="10" width="176" height="70"/>
      <text x="8" y="104">PLAN 1 · 1200 sq ft</text>
      <text x="8" y="116" fill="#6B6B6B" font-size="8">RES · 2024-12-04</text>
    </g>
    <g transform="translate(212,12)">
      <rect width="196" height="126" fill="#141414" stroke="#1F1F1F"/>
      <rect x="6" y="6" width="184" height="78" fill="#0A0A0A"/>
      <use href="#mp-s" x="10" y="10" width="176" height="70"/>
      <text x="8" y="104">PLAN 2 · 960 sq ft</text>
      <text x="8" y="116" fill="#6B6B6B" font-size="8">RES · 2024-11-21</text>
    </g>
    <g transform="translate(12,142)">
      <rect width="196" height="126" fill="#141414" stroke="#1F1F1F"/>
      <rect x="6" y="6" width="184" height="78" fill="#0A0A0A"/>
      <use href="#mp-s" x="10" y="10" width="176" height="70"/>
      <text x="8" y="104">PLAN 3 · 780 sq ft</text>
      <text x="8" y="116" fill="#6B6B6B" font-size="8">PROMPT · 2024-10-02</text>
    </g>
    <g transform="translate(212,142)">
      <rect width="196" height="126" fill="#141414" stroke="#1F1F1F"/>
      <rect x="6" y="6" width="184" height="78" fill="#0A0A0A"/>
      <use href="#mp-s" x="10" y="10" width="176" height="70"/>
      <text x="8" y="104">PLAN 4 · 1420 sq ft</text>
      <text x="8" y="116" fill="#6B6B6B" font-size="8">RES · 2024-09-15</text>
    </g>
  </g>
</svg>
