<svg xmlns="http://www.w3.org/2000/svg" viewBox="0 0 420 280" width="420" height="280" font-family="monospace">
  <defs>
    <pattern id="dgrid" width="14" height="14" patternUnits="userSpaceOnUse">
      <path d="M 14 0 L 0 0 0 14" fill="none" stroke="#1F1F1F" stroke-width="1"/>
    </pattern>
  </defs>
  <rect width="420" height="280" fill="#0A0A0A"/>
  <g fill="#6B6B6B" font-size="11">
    <rect x="0" y="0" width="40" height="280" fill="#141414"/>
    <line x1="40" y1="0" x2="40" y2="280" stroke="#1F1F1F"/>
    <text x="20" y="26" text-anchor="middle" fill="#D4FF3A">▢</text>
    <text x="20" y="58" text-anchor="middle">🔧</text>
    <text x="20" y="90" text-anchor="middle">ⓘ</text>
    <text x="20" y="122" text-anchor="middle">🛋</text>
    <text x="20" y="154" text-anchor="middle">🎨</text>
    <text x="20" y="186" text-anchor="middle">⤴</text>
    <text x="20" y="218" text-anchor="middle">?</text>
  </g>
  <rect x="40" y="0" width="380" height="280" fill="url(#dgrid)"/>
  <g transform="translate(110,60)">
    <rect x="0" y="0" width="240" height="160" fill="none" stroke="#D4FF3A" stroke-width="2"/>
    <line x1="120" y1="0" x2="120" y2="160" stroke="#D4FF3A" stroke-width="1.5"/>
    <line x1="0" y1="90" x2="120" y2="90" stroke="#D4FF3A" stroke-width="1.5"/>
    <line x1="180" y1="0" x2="180" y2="100" stroke="#D4FF3A" stroke-width="1.5"/>
    <rect x="2" y="2" width="116" height="84" fill="#D4FF3A" opacity="0.25"/>
    <rect x="180" y="2" width="58" height="94" fill="#D4FF3A" opacity="0.35"/>
    <text x="60" y="50" font-size="10" fill="#D4FF3A" text-anchor="middle">LIVING</text>
    <text x="60" y="130" font-size="10" fill="#D4FF3A" text-anchor="middle">KITCHEN</text>
    <text x="209" y="50" font-size="10" fill="#D4FF3A" text-anchor="middle">MASTER</text>
  </g>
</svg>
