<svg xmlns="http://www.w3.org/2000/svg" viewBox="0 0 640 860" role="img" aria-labelledby="title desc">
  <title id="title">Coastal resort cover</title>
  <desc id="desc">A tropical resort deck overlooking the sea.</desc>
  <defs>
    <linearGradient id="sea" x1="0" x2="0" y1="0" y2="1">
      <stop offset="0" stop-color="#6ec7e8"/>
      <stop offset=".45" stop-color="#13769b"/>
      <stop offset="1" stop-color="#083f58"/>
    </linearGradient>
    <linearGradient id="deck" x1="0" x2="1" y1="0" y2="1">
      <stop offset="0" stop-color="#f0d7ad"/>
      <stop offset="1" stop-color="#a66e42"/>
    </linearGradient>
  </defs>
  <rect width="640" height="860" fill="#83d4ef"/>
  <rect y="226" width="640" height="634" fill="url(#sea)"/>
  <path d="M0 340c118 34 237 36 356 6 96-24 190-22 284 6v508H0z" fill="#1c9eb6" opacity=".35"/>
  <path d="M0 646c108-70 224-106 348-108 116-2 214 25 292 80v242H0z" fill="#efe2c9"/>
  <path d="M118 602h404l56 258H62z" fill="url(#deck)"/>
  <g stroke="#6c3f28" stroke-width="6" opacity=".5">
    <path d="M148 602 108 860M226 602l-8 258M320 602v258M414 602l20 258M496 602l72 258"/>
  </g>
  <path d="M82 570c26-82 70-124 132-126-40 44-65 94-74 150z" fill="#2d7b45"/>
  <path d="M214 444c70 8 119 42 148 102-76-26-128-44-156-54z" fill="#3e9654"/>
  <path d="M500 516c-42-42-84-56-126-44 31 28 54 62 70 102z" fill="#2c7f4e"/>
</svg>
