<svg xmlns="http://www.w3.org/2000/svg" viewBox="0 0 640 860" role="img" aria-labelledby="title desc">
  <title id="title">Pool villa cover</title>
  <desc id="desc">A white modular villa beside a blue pool.</desc>
  <defs>
    <linearGradient id="sky" x1="0" x2="0" y1="0" y2="1">
      <stop offset="0" stop-color="#b8dff7"/>
      <stop offset=".62" stop-color="#f3f6f4"/>
      <stop offset="1" stop-color="#d7ebe8"/>
    </linearGradient>
    <linearGradient id="pool" x1="0" x2="1" y1="0" y2="1">
      <stop offset="0" stop-color="#87e5ed"/>
      <stop offset="1" stop-color="#118aa0"/>
    </linearGradient>
  </defs>
  <rect width="640" height="860" fill="url(#sky)"/>
  <path d="M0 590c124-82 274-110 450-84 80 12 143 30 190 54v300H0z" fill="#e9e2d4"/>
  <rect x="95" y="300" width="430" height="210" fill="#f7f5ef"/>
  <path d="M72 286h486l-36-58H112z" fill="#ffffff"/>
  <rect x="128" y="340" width="150" height="142" fill="#1c2426"/>
  <rect x="304" y="340" width="166" height="142" fill="#2e3a3c"/>
  <g stroke="#ffffff" stroke-width="6" opacity=".68">
    <path d="M203 340v142M386 340v142M128 410h342"/>
  </g>
  <path d="M0 650c160-38 314-38 462 0 64 16 123 19 178 8v202H0z" fill="url(#pool)"/>
  <path d="M428 620c62-52 118-75 170-68-14 48-50 82-108 104z" fill="#2c6d42"/>
  <path d="M472 602c45 6 84 24 116 54-42 18-84 13-126-16z" fill="#4c9c5c"/>
  <path d="M88 542h470" stroke="#c9c6bc" stroke-width="18"/>
</svg>
