<?xml version="1.0" encoding="utf-8"?>
<!-- Generator: Adobe Illustrator 27.2.0, SVG Export Plug-In . SVG Version: 6.00 Build 0)  -->
<svg version="1.1" id="_图层_1" xmlns="http://www.w3.org/2000/svg" xmlns:xlink="http://www.w3.org/1999/xlink" x="0px" y="0px"
	 viewBox="0 0 1818.75 581.25" style="enable-background:new 0 0 1818.75 581.25;" xml:space="preserve">
<style type="text/css">
	.st0{fill:#B3B3B3;}
</style>
<path class="st0" d="M1818.5,418.85v30.34h-184.37v-61.16c0-61.28,2.74-122.73-0.89-183.79c-2.78-46.76,14.83-84.76,36.9-125.38
	c10.94,4.73,21.15,9.13,33.16,14.33c-7.28,18.28-13.88,34.85-20.51,51.51c53.46,16.3,54.6-32.24,75.79-59.11
	c10.29,4.37,20.57,8.73,32.87,13.96c-6.36,15.86-11.94,29.79-18.48,46.08c14.57,1.24,26.69,2.28,41.53,3.55
	c0.66,9.33,1.32,18.46,2.18,30.55c-17.99,1.06-33.95,2.02-51.65,3.05v47.36c13.84,0.95,28.77,1.97,46.58,3.18
	c0.45,9.7,0.86,18.72,1.39,30.08c-16.6,1.1-30.79,2.02-47.34,3.11V313c13.76,0.94,27.16,1.84,43.83,2.97
	c0.53,8.86,1.06,17.85,1.76,29.29c-16.23,1.32-30.29,2.47-46.1,3.76v67.16C1781.66,417,1798.54,417.86,1818.5,418.85L1818.5,418.85z
	 M1722.96,229.53v-45.81h-48.59v45.81H1722.96z M1722.75,312.86v-45.57h-48v45.57H1722.75z M1721.98,416.32v-67.43h-46.99v67.43
	H1721.98z"/>
<path class="st0" d="M1631.99,92.9v31.14c-8.96,2.07-17.25,4-28.51,6.62V310.4c0,31.13,0.11,62.24-0.03,93.35
	c-0.18,41.63-6.03,47.52-47,47.29c-8.57-0.05-17.12-0.82-27.5-1.36v-30.74c36.1,5.2,37.37-16.65,36.14-42.63
	c-1.37-28.87-0.32-57.85-5.99-88.81c-22.59,40.89-45.16,81.78-69.01,124.93c-11.83-6.45-21.67-11.83-33.89-18.49
	c25.06-46.71,49.13-91.62,75.02-139.88c-22.53-1.19-41.24-2.19-63.2-3.36c6.62-37.32,12.81-72.21,19.35-109.11
	c12.33,1.97,21.51,3.44,33.84,5.42c-3.82,23.56-7.36,45.25-11.28,69.42h52.35v-89.12c-21.06,0-42.18-1.31-63.06,0.32
	c-27.42,2.15-31.9-10.36-24.37-34.72H1632L1631.99,92.9z"/>
<path class="st0" d="M1399.72,314.26v33.06h-111.27c-1.32,3.87-2.65,7.76-3.97,11.63c35.98,20.83,71.97,41.65,110.64,64.04
	c-2.37,6.83-5.74,16.51-10.05,28.92c-60.04-14.3-109.81-40.89-147.6-91.96c-30.46,40.13-68.21,67.61-114.11,83.46
	c-32.03,11.05-32.74,10.65-41.6-21.99c36.39-21.28,72.31-42.31,108.22-63.33c-1.36-3.39-2.71-6.78-4.07-10.18H1075.2
	c-0.56-12.46-1-21.77-1.53-33.64h326.04L1399.72,314.26z"/>
<path class="st0" d="M1367.76,101.78v195.78h-36.35V137.25h-186.87v160.5h-36.89V102.44c38.65,6.12,61.01-18.51,82.89-46.42
	c13.41,13.41,41.44,14.02,22.38,45.76H1367.76z"/>
<path class="st0" d="M1256.5,204.27c27.74-12.1,12.51-66.77,61.95-53.56c-5.7,16.44-11.2,32.35-16.6,47.94
	c24.95,15.12,24.87,27.12-0.34,41.65c5.18,15.04,10.46,30.38,16.18,47.02c-49.01,14.86-33.22-40.99-61.69-52.04v56.88h-34.82
	c-0.9-18.86-1.74-36.71-2.68-56.54c-27.9,10.62-12.36,66.63-61.16,52.25c5.24-16.1,10.25-31.43,14.09-43.26
	c-7.73-11.04-16.78-18.28-16.14-24.48c0.84-7.97,9.5-15.09,16.23-24.61c-4.2-12.59-9.34-28.06-14.83-44.55
	c48.88-14.02,34.92,39.03,61.51,54.85v-58.06h35.27C1254.45,166.22,1255.41,184.05,1256.5,204.27L1256.5,204.27z"/>
<path class="st0" d="M943.03,452.96c-27.77,0-50.81,1.76-73.31-0.98c-7.42-0.9-16.06-12.21-19.7-20.69
	c-26.19-60.59-51.22-121.68-78.47-187.06c-5.34,9.44-9.41,15.22-12.09,21.59c-22.09,52.89-45.07,105.48-65.3,159.09
	c-8.16,21.65-18.8,31.58-42.42,28.56c-16.12-2.07-32.71-0.4-54.56-0.4c57.38-123.23,112.77-242.2,168.17-361.17
	c3.15,0.21,6.28,0.44,9.42,0.66c55.28,118.41,110.55,236.81,168.25,360.41L943.03,452.96z"/>
<path class="st0" d="M557.42,388.21v62.27H438.63v-62.27H557.42z"/>
<path class="st0" d="M435.9,275.47c2.63,14.05,0.74,28.93,0.74,45.28c-56.86,13.17-97.66,42.28-93.54,106.47
	c3.53,55.31,40.95,80.31,91.8,89.6v63.72c-57.15,5-116.55-31.21-144.37-86.78c-33.98-67.84-20.49-134.54,42.23-203.43
	c-59.56-58.85-80.45-127.46-39.61-204.81c28.83-54.61,77.23-82.25,143.42-85.27c0,19.44,1.34,36.82-0.73,53.78
	c-0.73,5.99-8.83,13.94-15.17,15.94c-51.43,16.18-78.11,46.76-78.39,91.89c-0.29,45.54,26.46,76.4,77.49,92.69
	c7.12,2.26,14.67,13.01,16.14,20.91L435.9,275.47z"/>
<path class="st0" d="M200.96,393.82c3.75,39.55-13.78,59.32-52.59,59.33c-48.5,0.02-97.03,0-148.13,0V93.5h71.31v293.51h125.07
	C198.99,390.62,200.8,392.14,200.96,393.82L200.96,393.82z"/>
</svg>
