<?xml version="1.0" encoding="UTF-8"?>
<svg id="_图层_1" data-name=" 图层 1" xmlns="http://www.w3.org/2000/svg" viewBox="0 0 1820.95 301.66">
  <defs>
    <style>
      .cls-1 {
        fill: #fff;
      }

      .cls-2 {
        fill: #b3b3b3;
      }
    </style>
  </defs>
  <path class="cls-1" d="m1732.86,300.34v-69.17c-2.2-.45-12.18-.37-13.87.15v30.29c0,2.51.02,5.01-.01,7.51-.03,2.52.14,5.04-.28,7.6-.71-.67-1.25-1.38-1.74-2.12-9.35-14.03-18.7-28.04-28-42.09-.78-1.18-1.62-1.68-3.04-1.65-3.56.09-7.11.02-10.67.04-.64,0-1.28.09-1.87.14-.12.35-.23.53-.23.71-.02,22.32-.03,44.64-.03,66.95,0,.46.06.92.1,1.37.01.06.08.11.12.15.05.05.1.09.17.16h13.42c.11-.28.15-.34.15-.4.03-14.41.05-28.83.08-43.24,0-.2.01-.4.03-.6,0-.06.03-.12.06-.18.02-.06.06-.11.1-.15.05-.04.12-.05.35-.15.38.54.8,1.11,1.19,1.69,9.28,13.83,18.57,27.65,27.81,41.51.77,1.16,1.57,1.68,3.01,1.64,3.81-.1,7.64-.03,11.46-.04.56,0,1.13-.08,1.69-.12h0Z"/>
  <path class="cls-1" d="m1654.89,300.15c.39-2.56.25-67.63-.17-69.13h-14.58c-.41,2.82-.3,67.85.07,69.28,2.54.35,13.31.24,14.68-.15Z"/>
  <path class="cls-1" d="m1621.01,300.45v-69.26c-2.04-.45-13.04-.39-14.87.11-.1,8.89.05,17.87-.08,26.9h-30.05c-.04-9.1.02-18.07-.03-26.98-2.34-.51-13.48-.42-15.02.08v69.03h15.04c0-5.12-.02-10.1,0-15.08.02-5.04-.08-10.07.07-15.1h30.04v2.67c0,8.42-.01,16.85.01,25.27,0,.75.11,1.51.18,2.37,5.05.01,9.89.03,14.71-.01Z"/>
  <path class="cls-1" d="m1605.98,78.35c.38-3.54.23-17.6-.22-19.08h-33.35c-2.83,0-5.66.02-8.49,0-2.74-.03-5.48.11-8.22-.09v-8.77c.83-.26,1.57-.51,2.31-.74,10.28-3.23,19.75-7.99,28.07-14.88,8.29-6.87,14.83-15.09,19.06-25.05.33-.77.56-1.58.87-2.48-.53-.05-.85-.1-1.17-.1-8.56,0-17.12.01-25.68-.03-1.06-.01-1.67.41-2.3,1.18-3.47,4.22-6.87,8.5-10.53,12.55-2.82,3.12-5.96,5.95-8.99,8.87-.42.4-.86,1.04-1.78.7V2.86c-1.91-.47-26.88-.44-28.66.06v2.27c0,16.26-.01,32.51.02,48.77,0,2.3.12,4.61.34,6.9.79,8.39,5.3,13.81,13.38,16.18,3.63,1.07,7.36,1.44,11.12,1.45,17.58.03,35.16,0,52.75,0,.5,0,1-.1,1.47-.15h0Z"/>
  <path class="cls-1" d="m1606,179.19v-19.06h-50.29v-16.44c11.97-3.05,22.54-8.55,31.45-17.07,8.67-8.29,18.38-24.26,18.57-30.64h-27.8c-.12.13-.23.22-.29.33-.58,1.11-1.14,2.22-1.73,3.32-4.45,8.32-10.48,15.28-18.18,20.75-.59.42-1.11,1.15-2.16.88v-16.41c0-2.69.01-5.39,0-8.09,0-2.74-.02-5.48-.03-8.29h-28.64c0,1,.01,1.78.01,2.55,0,21.2-.01,42.39.01,63.59,0,2.36.12,4.73.33,7.09.78,8.52,5.48,14.11,13.7,16.36,3.26.89,6.58,1.26,9.96,1.26,17.71,0,35.42,0,53.14,0,.63,0,1.27-.08,1.95-.12h0Z"/>
  <path class="cls-1" d="m1532.48,253.19c4.9-1.08,9.7-2.13,14.68-3.23-.24-.82-.38-1.33-.55-1.82-2.9-8.48-8.81-13.89-17.22-16.61-7.38-2.39-14.95-2.5-22.42-.7-11.48,2.76-19.45,9.7-23.15,21.03-2.79,8.58-3.02,17.39-.62,26.08,3.18,11.52,10.76,18.93,22.21,22.25,6.64,1.92,13.39,1.86,20.13.42,9.35-1.99,16-7.36,19.92-16.08.56-1.26,1.03-2.56,1.51-3.85.15-.41.2-.86.32-1.46-4.82-1.41-9.53-2.79-14.35-4.21-.5,1.38-.91,2.69-1.43,3.96-2.76,6.75-7.67,10.5-15.08,10.75-8.8.3-15.6-4.59-17.81-13.12-.77-2.97-1.1-6.08-1.31-9.15-.31-4.48.03-8.95,1.35-13.29,1.65-5.43,5.07-9.27,10.4-11.37,3.27-1.29,6.7-1.53,10.11-1.03,6.13.9,10.56,4.15,12.75,10.12.15.41.34.81.56,1.31h0Z"/>
  <path class="cls-1" d="m1515.23,57.92s.09-.09.25-.28c-2.42-17.11-4.85-34.34-7.29-51.59h-27.86c1.01,10.96,2.01,21.8,3.02,32.71-.65.1-1.09.23-1.54.23-8.82,0-17.65,0-26.47,0-.42,0-.83-.19-1.36-.32,1.55-4.3,3.04-8.45,4.54-12.59,1.48-4.08,3-8.14,4.43-12.24,1.44-4.11,3.07-8.16,4.39-12.44h-28.35c-.21.47-.43.88-.57,1.3-4,12.05-7.99,24.1-11.95,36.16-.28.85-.42,1.79-.43,2.69-.04,4.87-.02,9.75-.01,14.62,0,.57.07,1.15.1,1.65.23.13.34.23.46.25.32.06.65.11.97.11,28.92,0,57.83,0,86.74-.01.26,0,.52-.07.78-.12.06,0,.11-.07.15-.12h0Z"/>
  <path class="cls-1" d="m1444.09,233.07c.4-.58.74-1.19,1.29-2.06-1.01-.05-1.71-.11-2.4-.11-4.15,0-8.3.07-12.45-.04-1.7-.04-2.72.47-3.65,1.97-4.9,7.95-9.93,15.82-14.92,23.71-.37.58-.77,1.14-1.31,1.94-.57-.87-.97-1.47-1.36-2.06-5.18-8.01-10.38-16.01-15.52-24.04-.68-1.07-1.42-1.52-2.7-1.51-4.61.07-9.22.02-13.83.04-.55,0-1.1.12-1.94.22.59.89,1.01,1.54,1.44,2.18,8.32,12.09,16.62,24.18,24.97,36.25.74,1.08,1.1,2.15,1.09,3.46-.04,8.43-.02,16.85-.02,25.27.01.69.07,1.39.11,2.08h14.77c.05-.86.13-1.63.13-2.39,0-8.23.02-16.45-.02-24.68-.01-1.38.34-2.52,1.13-3.66,8.42-12.18,16.8-24.38,25.19-36.57h0Z"/>
  <path class="cls-1" d="m1367.02,292.17c1.12-.8,1.6-1.69,1.58-3.11-.06-7.89-.03-15.79-.03-23.69,0-.64-.06-1.28-.1-2.03h-32.48v11.46h17.35c0,2.63-.07,4.93.03,7.22.05,1.27-.36,2.07-1.46,2.72-5.74,3.4-11.82,5.33-18.59,4.93-9.04-.54-16.01-5.91-18.5-14.6-1.71-6-1.79-12.09-.44-18.16,1.45-6.49,5.25-11.09,11.43-13.64,4.31-1.78,8.84-2.09,13.39-1.43,6.16.9,10.76,4.04,13.1,10.03.09.23.3.41.52.69,4.85-.83,9.69-1.67,14.61-2.52-.1-.56-.13-.88-.22-1.18-2.57-9-8.57-14.67-17.4-17.25-9.02-2.64-18.26-2.77-27.3-.29-10.7,2.92-18.22,9.71-22.15,20.2-2.75,7.35-3.14,14.92-1.5,22.54,2.83,13.15,10.57,21.96,23.66,25.71,9.01,2.58,18.08,2.41,27.12.15,6.23-1.57,12.1-4,17.38-7.75h0Z"/>
  <path class="cls-1" d="m1210.84,300.35v-11.5h-28.13c-2.31,0-4.61.02-6.92,0-2.34-.02-4.68.09-6.97-.08-.42-3.87-.25-17.54.27-19.1h37.54c.02-3.91.14-7.61-.08-11.49-12.75-.02-25.24,0-37.76-.02v-15.61h40.69v-11.49h-55.5c-.46,2.12-.38,67.83.05,69.29h56.81,0Z"/>
  <path class="cls-1" d="m1137.15,300.35v-69.12c-1.97-.45-12.05-.41-13.86.08v32.67c0,2.17.03,4.34-.01,6.52-.04,2.11.2,4.25-.23,6.8-.69-.99-1.14-1.62-1.56-2.26-9.46-14.18-18.92-28.36-28.34-42.57-.73-1.11-1.52-1.61-2.87-1.58-3.55.08-7.11.02-10.67.04-.64,0-1.29.07-2.01.11-.43,2.82-.3,67.83.11,69.35h13.49c.05-.8.13-1.51.13-2.21.01-4.8.01-9.61.01-14.41,0-8.63-.01-17.25,0-25.88,0-.73-.24-1.54.44-2.33.34.44.63.78.88,1.14,1.66,2.46,3.31,4.92,4.96,7.38,7.77,11.59,15.57,23.16,23.28,34.78.85,1.27,1.73,1.71,3.21,1.67,3.75-.1,7.51-.03,11.26-.04.57,0,1.14-.09,1.77-.14h.01Z"/>
  <path class="cls-1" d="m1063.95,300.39c.05-3.85.13-7.61-.07-11.58h-42.07v-19.04c12.68-.01,25.22-.01,37.97-.01.05-3.92.16-7.62-.09-11.6h-37.75c-.5-2.66-.37-14.18.18-15.65h26.99c4.45,0,8.89,0,13.4-.01v-11.22c-1.92-.53-54.06-.48-55.72.04v69.07h57.16,0Z"/>
  <path class="cls-1" d="m904.59,290.75c.02-7.84.01-15.67.01-23.5,0-12.05.01-24.1-.02-36.14,0-1.37-.15-2.76-.39-4.11-.3-1.7-1.41-2.8-3.06-3.26-.88-.25-1.8-.4-2.71-.42-2.63-.05-5.27-.02-7.9,0-24.76.08-49.52.15-74.28.24-6.39.02-12.78.06-19.17.13-1.04,0-2.1.13-3.12.33-2.71.54-4.68,2.29-6.56,4.17-16.2,16.2-32.41,32.4-48.62,48.6-6.19,6.19-12.41,12.36-18.58,18.56-.69.69-1.37,1.48-1.73,2.36-.78,1.9.41,3.55,2.46,3.6.6.01,1.19,0,1.78,0h85.75c28.38,0,56.77,0,85.16-.01.92,0,1.85.06,2.76-.03,3.97-.41,7.07-1.73,7.99-6.98.2-1.16.23-2.35.23-3.53Z"/>
  <path class="cls-1" d="m904.55,73.67c.07-.59.04-1.19.04-1.78V9.87c0-.92.02-1.85-.06-2.76-.33-3.74-2.3-5.94-5.97-6.56-1.42-.24-2.87-.38-4.31-.38-39.71-.02-79.43-.02-119.14-.02h-1.19c-2.85.08-5.44.89-7.63,2.77-.8.68-1.57,1.4-2.31,2.15-9.83,9.91-19.65,19.83-29.47,29.75-12.33,12.44-24.65,24.89-36.96,37.34-.51.51-1.02,1.04-1.42,1.64-.67,1-.68,2.11-.18,3.19.5,1.1,1.48,1.16,2.51,1.12.66-.02,1.32,0,1.98,0h197.19c.79,0,1.58.03,2.37-.03,2.39-.17,4.3-2.04,4.55-4.42h0Z"/>
  <path class="cls-1" d="m768.49,229.61c3.77-3.73,5.48-7.8,5.46-13.14-.13-37.71-.07-75.43-.08-113.15,0-1.38.02-2.78-.14-4.14-.15-1.23-.41-2.47-.84-3.63-.79-2.15-2.44-3.4-4.69-3.75-1.36-.21-2.75-.35-4.12-.36-20.22-.02-40.44-.01-60.66-.01-.53,0-1.06-.03-1.58.02-3.01.28-4.9,2.3-4.99,5.33-.02.72-.01,1.44-.01,2.17v193.73c0,.65-.01,1.31.01,1.97.06,2.37,1.98,3.46,4.07,2.28.51-.28.96-.69,1.38-1.1.99-.96,1.94-1.97,2.91-2.95,21.08-21.1,42.11-42.25,63.28-63.27h0Z"/>
  <path class="cls-1" d="m678.54,204.62c.03-.65.01-1.31.01-1.97,0-32.33,0-64.65-.01-96.98V8.09c0-.53.01-1.05,0-1.58-.06-2.46-2.25-3.7-4.39-2.46-.62.36-1.14.89-1.65,1.4-11.48,11.43-22.95,22.87-34.43,34.3-6.48,6.46-12.98,12.9-19.47,19.36-4.43,4.42-8.83,8.86-13.28,13.26-2.86,2.84-4.39,6.16-4.23,10.25.11,2.7.02,5.4.02,8.1,0,36.14,0,72.29.02,108.43.01,1.83.14,3.7.51,5.48.61,2.91,2.4,4.8,5.44,5.25,1.04.15,2.09.23,3.14.24,7.11.02,14.23,0,21.34,0,13.77,0,27.53,0,41.3,0,3.37,0,5.54-2.14,5.68-5.51h0Z"/>
  <path class="cls-1" d="m678.13,227.37c1.03-1.78-.14-4.71-2.54-4.18-.5.1-1.05,0-1.57,0h-98.19c-32.66,0-65.32,0-97.99,0-.66,0-1.31,0-1.97,0-1.79.04-3.14.88-4.13,2.32-.82,1.2-.92,2.56-.92,3.97,0,20.8,0,41.6.02,62.39,0,1.12.12,2.23.26,3.34.4,3.23,2.36,5.1,5.44,5.7,1.85.36,3.78.47,5.68.47,38.59.03,77.18.02,115.77.02.59,0,1.18-.02,1.78-.01,3.33.07,6.17-1.13,8.58-3.38.72-.67,1.43-1.36,2.13-2.06,14.56-14.68,29.11-29.36,43.66-44.04,7.51-7.57,15.03-15.14,22.53-22.72.55-.56,1.07-1.17,1.46-1.84h0Z"/>
  <path class="cls-1" d="m656.14,4.44c1.27-2.33.06-4.4-2.57-4.43h-86.94C538.38,0,510.12,0,481.87.02c-.99,0-1.98-.02-2.97.05-4.49.33-7.11,2.75-7.78,7.22-.18,1.16-.29,2.35-.29,3.53,0,19.75,0,39.5.01,59.25,0,1.25.1,2.5.29,3.73.42,2.64,1.93,4.06,4.6,4.37,1.17.14,2.36.15,3.55.15,32.08.01,64.15.01,96.23,0,.59,0,1.18-.02,1.78-.01,3.56.07,6.53-1.28,9.03-3.76,1.73-1.71,3.45-3.44,5.17-5.16,20.91-20.91,41.81-41.82,62.71-62.73.37-.37.76-.73,1.11-1.13.3-.34.61-.69.83-1.09h0Z"/>
  <path class="cls-1" d="m563.99,124.13c.02-5.03-3.85-8.79-8.85-8.78-25.16.08-50.32.04-75.47.05-.79,0-1.59.04-2.35.22-4.02.92-6.49,4.15-6.49,8.52,0,17.64.08,35.28-.05,52.92-.04,4.98,3.49,9.21,9.09,9.12,12.51-.21,25.02-.07,37.53-.07s25.16,0,37.74,0c1.68,0,3.29-.15,4.74-1.06,2.83-1.75,4.09-4.32,4.09-7.61-.01-17.77-.05-35.55.02-53.32h0Z"/>
  <path class="cls-1" d="m424.87,186.01c4.93.05,8.74-3.75,8.71-8.63-.13-17.78-.12-35.55,0-53.32.03-4.41-3.22-8.55-8.59-8.55-25.23.03-50.45,0-75.67.03-5.04,0-8.49,3.42-8.5,8.41-.02,17.84-.01,35.68,0,53.52,0,.65.03,1.32.16,1.96.83,3.94,3.96,6.51,8.03,6.52,12.71.03,25.42,0,38.13,0s25.16-.09,37.74.05h-.01Z"/>
  <path class="cls-1" d="m428.03,78.18c2.77.09,5.74-1.99,5.5-5.57-.03-.32,0-.65,0-.98V10.01c0-1.06,0-2.12-.09-3.16-.27-3.16-1.81-5.17-4.87-5.96-1.77-.45-3.63-.68-5.45-.69-30.43-.04-60.86-.02-91.29-.02-8.83,0-17.66.01-26.48,0-3.38-.01-6.33,1.04-8.8,3.37-.58.54-1.15,1.09-1.7,1.65-14.91,14.98-29.82,29.97-44.72,44.96-7.29,7.33-14.59,14.65-21.86,22-.68.69-1.37,1.47-1.76,2.34-.87,1.93.25,3.58,2.35,3.64.65.02,1.31,0,1.97,0h183.18c4.68,0,9.36-.11,14.03.04h0Z"/>
  <path class="cls-1" d="m433.53,290.76v-59.45c0-.92,0-1.84-.07-2.76-.24-3.19-1.94-4.92-5.12-5.19-.79-.07-1.58-.05-2.37-.05-32.53,0-65.07.04-97.6-.04-4.26,0-7.61,1.46-10.56,4.41-22.62,22.64-45.26,45.24-67.9,67.86-.42.42-.85.84-1.17,1.32-.71,1.08-.73,2.24-.2,3.39.5,1.1,1.52,1.11,2.53,1.07.6-.02,1.19,0,1.78,0,28.39-.01,56.77-.01,85.16-.01h84.36c.92,0,1.84.02,2.77-.02,5.05-.21,8.02-3.12,8.33-8.17.05-.78.06-1.57.06-2.36h0Z"/>
  <path class="cls-1" d="m303.37,221.22c.15-1.23.13-2.49.13-3.74v-56.89h-.08v-16.98c-.01-13.63.01-27.26-.07-40.89-.01-2.15-.27-4.34-.78-6.43-.66-2.67-2.55-4.23-5.35-4.53-1.44-.15-2.88-.3-4.32-.3-19.89-.02-39.79.05-59.68-.06-4.23-.03-7.08,1.73-7.07,7,.09,65.11.06,130.22.06,195.34,0,.39-.01.79,0,1.18.05,2.44,2.1,3.62,4.19,2.35.77-.47,1.42-1.16,2.07-1.81,22.12-22.12,44.24-44.24,66.35-66.36.6-.61,1.19-1.23,1.75-1.88,1.5-1.73,2.51-3.72,2.8-6h0Z"/>
  <path class="cls-1" d="m207.78,72.45c.01-21.19.01-42.39-.02-63.58,0-1.04-.16-2.09-.34-3.13-.43-2.43-1.89-4.07-4.23-4.73-1.63-.45-3.35-.79-5.03-.79-39.84-.04-79.68-.03-119.52-.03-3.22,0-6.08.98-8.47,3.18-1.12,1.02-2.19,2.09-3.26,3.17-9.91,10.01-19.81,20.02-29.72,30.04C25.34,48.56,13.48,60.54,1.63,72.52c-.37.37-.75.75-1.04,1.18-.71,1.07-.78,2.22-.23,3.37.52,1.09,1.52,1.12,2.54,1.08.59-.01,1.18,0,1.78,0h97.98c33.05,0,66.11,0,99.17-.01,3.95,0,5.95-1.88,5.95-5.69Z"/>
  <path class="cls-1" d="m207.78,291.71c.01-20.54.01-41.07,0-61.6-.01-.98-.17-1.97-.37-2.93-.37-1.85-1.5-3.08-3.35-3.47-1.21-.25-2.47-.38-3.71-.38-14.42-.02-28.84,0-43.26,0-18.96,0-37.92,0-56.89,0-1.24,0-2.5,0-3.73.2-2.94.45-5.15,2.18-7.18,4.22-19.11,19.16-38.24,38.29-57.35,57.44-3.4,3.4-6.79,6.81-10.17,10.22-.46.46-.95.93-1.31,1.47-.71,1.06-.78,2.2-.2,3.36.55,1.08,1.52,1.12,2.54,1.09.59-.03,1.19-.01,1.78-.01h172.05c.92,0,1.85.04,2.77-.03,4.3-.35,7.35-2.06,8.13-7.04.13-.84.26-1.7.26-2.54h-.01Z"/>
  <path class="cls-1" d="m77,102.53c0-.92.09-1.86-.05-2.76-.24-1.48-.5-2.99-1-4.4-.72-2.02-2.35-3.15-4.42-3.53-1.35-.25-2.74-.38-4.12-.38-20.28-.02-40.56-.02-60.85-.02-.46,0-.92-.02-1.38.02-3.33.23-5.26,2.6-5.17,5.35.03.79,0,1.58,0,2.37v191.94c0,.72-.02,1.45.02,2.17.1,1.97,1.78,3.04,3.58,2.2.75-.35,1.42-.95,2.02-1.54,3.78-3.76,7.54-7.54,11.3-11.32l54.66-54.84c.97-.98,1.91-2,2.8-3.05,1.45-1.7,2.28-3.7,2.53-5.9.13-1.11.09-2.24.09-3.36,0-37.65,0-75.3-.01-112.95h0Z"/>
  <path class="cls-2" d="m1820.45,40.21c.55,1.65.68,15.08.21,17.68-4.01.01-8.07.01-12.33.01-.05.89-.12,1.59-.13,2.29-.04,3.23-.02,6.45-.11,9.68-.08,2.77-.58,5.49-1.52,8.11-1.85,5.18-5.55,8.2-10.9,9.19-1.67.31-3.39.43-5.1.44-7.64.04-15.28.02-22.92.02h-2.07c-.5,1.83-.52,8.17-.03,10.18h38.66c.08,6.06.03,11.87.04,17.94-3.42.17-6.62.07-9.82.09-3.23,0-6.46,0-9.68,0h-19.41c-.25,3.52-.19,6.88-.03,10.48,14.32,0,28.44,0,42.5,0,.46,1.66.57,15.48.17,18.12h-42.64v13.2h55.14c.45,1.61.54,19.53.13,21.88-.54.04-1.11.11-1.68.11-28.72,0-57.44.05-86.16-.02-9.23-.02-18.4-.84-27.44-2.88-10.75-2.43-20.44-7.17-29.39-13.51-1.93-1.36-3.87-2.71-5.9-4.14-7.51,8.64-15.31,16.81-24.77,23.58-4.56-6.03-9.02-11.94-13.62-18.01.59-.54,1.1-1.02,1.62-1.49,5.58-4.92,11.07-9.95,16.03-15.51,1.52-1.71,2.91-3.54,4.41-5.38-8.48-13.4-14.77-27.57-19.2-42.78.7-.1,1.13-.22,1.56-.22,6.39.01,12.77.03,19.16.06,1.53,0,1.49.06,2.04,1.55,1.92,5.18,3.82,10.36,5.83,15.51.59,1.49,1.52,2.85,2.36,4.39,2.46-3.54,7.91-24.85,8.15-31.63-4.38-.12-8.77-.04-13.16-.05-4.48-.02-8.96-.01-13.43-.01h-13.37c-.05-.8-.13-1.43-.13-2.07,0-5.07.03-10.13-.03-15.2-.01-1.21.35-2.1,1.14-2.99,10.98-12.36,21.92-24.75,32.87-37.13.47-.53.92-1.09,1.38-1.63-.06-.15-.12-.3-.18-.46h-34.83c-.42-1.58-.56-15.36-.22-18.44,1.43-.41,61.92-.53,64.48-.09.04.58.11,1.21.11,1.83.01,5.27-.03,10.54.03,15.8.02,1.28-.37,2.22-1.21,3.16-10.39,11.56-20.73,23.16-31.09,34.75-.47.53-.93,1.08-1.65,1.94,2.5.33,4.7.13,6.87.16,2.24.04,4.48.01,6.72.01h20.08c.05.82.12,1.46.12,2.1.01,3.82.15,7.64-.04,11.45-.17,3.41-.61,6.81-1.1,10.19-1.54,10.57-3.78,20.99-7.46,31.03-2.06,5.61-4.49,11.08-6.84,16.85.11.14.43.55.78.93,6.37,6.91,14.36,10.96,23.38,13.17,6.73,1.65,13.58,2.54,20.5,2.84,2.82.12,5.65.23,8.48.34.72.02,1.44,0,2.38,0,.33-4.35.1-8.59.15-13.06-6.08-.2-12.05-.06-18.01-.09-5.99-.02-11.98,0-17.94,0-.5-1.47-.58-15.88-.08-18.14h35.91v-10.45h-31.89c-.19-6.04-.05-11.85-.1-17.88.91-.06,1.67-.14,2.43-.14,8.96-.01,17.92-.01,26.88-.01h2.66v-10.17h-31.81v-18.88h31.82v-10.76h-36.22c-.2-5.91-.05-11.66-.11-17.69,6.16-.09,12.19-.03,18.21-.04,5.98,0,11.96,0,18.19,0,.12-3.77.08-7.35.01-11.21-2.17-.02-4.25-.04-6.33-.05h-25.59V10.94c2.59-.24,5.21-.08,7.82-.11,2.7-.03,5.41,0,8.11,0h15.99V.17h26.64c.06.52.17,1.07.18,1.63.02,2.18-.01,4.35.02,6.52.01.77.12,1.54.2,2.52h42.83v29.38h12.29,0Zm-33.98-.3v-10.74h-21.13v10.85c2.29.47,19.72.36,21.13-.11Zm-.02,28.45v-10.3h-21.14c-.16,3.56-.25,7.05.03,10.5,3.86.44,19.72.26,21.11-.2Z"/>
  <path class="cls-2" d="m1819.57,298.07c.29.66.54,1.33.81,1.99-1.45.51-10.06.67-16.11.32-.24-.51-.53-1.08-.78-1.68-1.75-4.18-3.51-8.37-5.21-12.57-.42-1.03-.93-1.55-2.16-1.54-9.22.05-18.44.03-27.66.03-.39,0-.78.08-1.29.13-2.07,5.19-4.13,10.37-6.22,15.61h-15.94c.33-.85.55-1.52.82-2.17,9.23-21.81,18.47-43.62,27.65-65.44.62-1.47,1.42-1.93,2.95-1.9,3.95.1,7.9.11,11.85,0,1.54-.05,2.3.39,2.94,1.87,5.56,13,11.24,25.96,16.87,38.93,3.83,8.81,7.66,17.61,11.48,26.42h0Zm-47.31-25.19h20.42c-3.48-8.61-6.86-17-10.34-25.64-1.54,2.33-10.08,24.23-10.08,25.64h0Z"/>
  <path class="cls-2" d="m1732.87,231.17v69.17c-.56.04-1.13.12-1.69.12-3.82.01-7.65-.06-11.46.04-1.44.04-2.24-.48-3.01-1.64-9.24-13.86-18.53-27.68-27.81-41.51-.39-.58-.81-1.15-1.19-1.69-.23.1-.3.11-.35.15-.04.04-.08.09-.1.15-.03.06-.06.12-.06.18-.02.2-.03.4-.03.6-.03,14.41-.05,28.83-.08,43.24,0,.06-.04.12-.15.4h-13.42c-.07-.07-.12-.11-.17-.16-.04-.04-.11-.09-.12-.15-.04-.45-.1-.91-.1-1.37,0-22.31.01-44.63.03-66.95,0-.18.11-.36.23-.71.59-.05,1.23-.14,1.87-.14,3.56-.02,7.11.05,10.67-.04,1.42-.03,2.26.47,3.04,1.65,9.3,14.05,18.65,28.06,28,42.09.49.74,1.03,1.45,1.74,2.12.42-2.56.25-5.08.28-7.6.03-2.5.01-5,.01-7.51v-30.29c1.69-.52,11.67-.6,13.87-.15h0Z"/>
  <path class="cls-2" d="m1654.73,231.02c.42,1.5.56,66.57.17,69.13-1.37.39-12.14.5-14.68.15-.37-1.43-.48-66.46-.07-69.28h14.58Z"/>
  <path class="cls-2" d="m1621.02,231.19v69.26c-4.82.04-9.66.02-14.71.01-.07-.86-.18-1.62-.18-2.37-.02-8.42-.01-16.85-.01-25.27v-2.67h-30.04c-.15,5.03-.05,10.06-.07,15.1-.02,4.98,0,9.96,0,15.08h-15.04v-69.03c1.54-.5,12.68-.59,15.02-.08.05,8.91-.01,17.88.03,26.98h30.05c.13-9.03-.02-18.01.08-26.9,1.83-.5,12.83-.56,14.87-.11Z"/>
  <path class="cls-2" d="m1605.77,59.27c.45,1.48.6,15.54.22,19.08-.47.05-.97.15-1.47.15-17.59,0-35.17.02-52.75,0-3.76-.01-7.49-.38-11.12-1.45-8.08-2.37-12.59-7.79-13.38-16.18-.22-2.29-.34-4.6-.34-6.9-.03-16.26-.02-32.51-.02-48.77v-2.27c1.78-.5,26.75-.53,28.66-.06v27.57c.92.34,1.36-.3,1.78-.7,3.03-2.92,6.17-5.75,8.99-8.87,3.66-4.05,7.06-8.33,10.53-12.55.63-.77,1.24-1.19,2.3-1.18,8.56.04,17.12.02,25.68.03.32,0,.64.05,1.17.1-.31.9-.54,1.71-.87,2.48-4.23,9.96-10.77,18.18-19.06,25.05-8.32,6.89-17.79,11.65-28.07,14.88-.74.23-1.48.48-2.31.74v8.77c2.74.2,5.48.06,8.22.09,2.83.02,5.66,0,8.49,0h33.35,0Z"/>
  <path class="cls-2" d="m1606.01,160.13v19.06c-.68.04-1.32.12-1.95.12-17.72,0-35.43,0-53.14,0-3.38,0-6.7-.37-9.96-1.26-8.22-2.25-12.92-7.84-13.7-16.36-.21-2.36-.33-4.73-.33-7.09-.02-21.2-.01-42.39-.01-63.59,0-.77-.01-1.55-.01-2.55h28.64c.01,2.81.03,5.55.03,8.29.01,2.7,0,5.4,0,8.09v16.41c1.05.27,1.57-.46,2.16-.88,7.7-5.47,13.73-12.43,18.18-20.75.59-1.1,1.15-2.21,1.73-3.32.06-.11.17-.2.29-.33h27.8c-.19,6.38-9.9,22.35-18.57,30.64-8.91,8.52-19.48,14.02-31.45,17.07v16.44h50.29,0Z"/>
  <path class="cls-2" d="m1547.16,249.96c-4.98,1.1-9.78,2.15-14.68,3.23-.22-.5-.41-.9-.56-1.31-2.19-5.97-6.62-9.22-12.75-10.12-3.41-.5-6.84-.26-10.11,1.03-5.33,2.1-8.75,5.94-10.4,11.37-1.32,4.34-1.66,8.81-1.35,13.29.21,3.07.54,6.18,1.31,9.15,2.21,8.53,9.01,13.42,17.81,13.12,7.41-.25,12.32-4,15.08-10.75.52-1.27.93-2.58,1.43-3.96,4.82,1.42,9.53,2.8,14.35,4.21-.12.6-.17,1.05-.32,1.46-.48,1.29-.95,2.59-1.51,3.85-3.92,8.72-10.57,14.09-19.92,16.08-6.74,1.44-13.49,1.5-20.13-.42-11.45-3.32-19.03-10.73-22.21-22.25-2.4-8.69-2.17-17.5.62-26.08,3.7-11.33,11.67-18.27,23.15-21.03,7.47-1.8,15.04-1.69,22.42.7,8.41,2.72,14.32,8.13,17.22,16.61.17.49.31,1,.55,1.82h0Z"/>
  <path class="cls-2" d="m1515.49,57.64c-.16.19-.2.24-.25.28-.04.05-.09.11-.15.12-.26.05-.52.12-.78.12-28.91.01-57.82.01-86.74.01-.32,0-.65-.05-.97-.11-.12-.02-.23-.12-.46-.25-.03-.5-.1-1.08-.1-1.65-.01-4.87-.03-9.75.01-14.62.01-.9.15-1.84.43-2.69,3.96-12.06,7.95-24.11,11.95-36.16.14-.42.36-.83.57-1.3h28.35c-1.32,4.28-2.95,8.33-4.39,12.44-1.43,4.1-2.95,8.16-4.43,12.24-1.5,4.14-2.99,8.29-4.54,12.59.53.13.94.32,1.36.32,8.82.02,17.65.02,26.47,0,.45,0,.89-.13,1.54-.23-1.01-10.91-2.01-21.75-3.02-32.71h27.86c2.44,17.25,4.87,34.48,7.29,51.59h0Z"/>
  <path class="cls-2" d="m1514.12,142.66c0,6.39-.01,12.78,0,19.16,0,3.74-.66,7.34-2.21,10.75-2.47,5.44-6.59,8.68-12.7,8.77-7.97.13-15.94.06-23.91.07-.38,0-.75-.15-1.22-.24v-18.74c3.73-.44,7.47.04,11.32-.3v-9.14c-10.48,0-20.85,0-31.41,0v28.3c-9.44,0-18.57,0-27.82,0,0-38.69-.01-77.24-.01-115.79,1.42-.38,84.25-.54,87.87-.14.03.78.08,1.61.08,2.44.01,24.95.01,49.9.01,74.85Zm-28.84-43.87c.44-2.12.38-11.93-.08-13.48h-31.09v13.48h31.17,0Zm-.07,34.65c.5-1.83.48-13.53,0-15.14-2.45-.42-29.7-.29-31.14.18v14.96h31.14Z"/>
  <path class="cls-2" d="m1445.39,231.01c-.55.87-.89,1.48-1.29,2.06-8.39,12.19-16.77,24.39-25.19,36.57-.79,1.14-1.14,2.28-1.13,3.66.04,8.23.02,16.45.02,24.68,0,.76-.08,1.53-.13,2.39h-14.77c-.04-.69-.1-1.39-.11-2.08,0-8.42-.02-16.84.02-25.27.01-1.31-.35-2.38-1.09-3.46-8.35-12.07-16.65-24.16-24.97-36.25-.43-.64-.85-1.29-1.44-2.18.84-.1,1.39-.22,1.94-.22,4.61-.02,9.22.03,13.83-.04,1.28,0,2.02.44,2.7,1.51,5.14,8.03,10.34,16.03,15.52,24.04.39.59.79,1.19,1.36,2.06.54-.8.94-1.36,1.31-1.94,4.99-7.89,10.02-15.76,14.92-23.71.93-1.5,1.95-2.01,3.65-1.97,4.15.11,8.3.03,12.45.04.69,0,1.39.06,2.4.11h0Z"/>
  <path class="cls-2" d="m1395.48,6.86c0,47.79.01,95.58,0,143.37,0,4.5-.53,8.93-1.91,13.23-2.42,7.59-7.62,12.15-15.35,13.75-2.68.56-5.48.85-8.22.86-50.85.05-101.69.04-152.54.03-.64,0-1.29-.06-1.89-.09-.41-1.63-.51-170.79-.13-173,1.51-.48,177.91-.54,179.95-.04.03.6.09,1.24.09,1.89h0Zm-28.29,146.72c.47-2.11.42-124.75,0-126.25-2.65-.37-122.38-.24-123.82.15-.03.3-.09.62-.09.95,0,41.4,0,82.81.01,124.22,0,.19.07.38.12.57.01.06.06.11.1.16.05.05.1.08.25.21,41.05,0,82.2,0,123.44,0h-.01Z"/>
  <path class="cls-2" d="m1368.61,289.06c.02,1.42-.46,2.31-1.58,3.11-5.28,3.75-11.15,6.18-17.38,7.75-9.04,2.26-18.11,2.43-27.12-.15-13.09-3.75-20.83-12.56-23.66-25.71-1.64-7.62-1.25-15.19,1.5-22.54,3.93-10.49,11.45-17.28,22.15-20.2,9.04-2.48,18.28-2.35,27.3.29,8.83,2.58,14.83,8.25,17.4,17.25.09.3.12.62.22,1.18-4.92.85-9.76,1.69-14.61,2.52-.22-.28-.43-.46-.52-.69-2.34-5.99-6.94-9.13-13.1-10.03-4.55-.66-9.08-.35-13.39,1.43-6.18,2.55-9.98,7.15-11.43,13.64-1.35,6.07-1.27,12.16.44,18.16,2.49,8.69,9.46,14.06,18.5,14.6,6.77.4,12.85-1.53,18.59-4.93,1.1-.65,1.51-1.45,1.46-2.72-.1-2.29-.03-4.59-.03-7.22h-17.35v-11.46h32.48c.04.75.1,1.39.1,2.03,0,7.9-.03,15.8.03,23.69h0Z"/>
  <path class="cls-2" d="m1355.75,39.88v20.01h-37.58c-.57,1.53-.71,16.23-.22,19.1,2.61,0,5.28.03,7.95.04h24.37v20.72c-5.33.24-10.7.08-16.06.11-5.39.03-10.78,0-16.12,0-.48,1.55-.61,18.42-.22,21.17,1.38.44,11.88.54,14.31.1v-10.41c7.43-.08,14.63-.03,21.98-.04.05.81.12,1.45.12,2.1-.03,7.04-.07,14.08-.11,21.12-.01.33-.01.66-.04.99-.31,4.27-2.68,6.75-6.95,7.22-1.04.11-2.1.13-3.15.13h-90.79c-.54-1.55-.68-18.16-.19-20.83h36.9v-21.52h-31.31v-20.84h31c.52-1.52.65-16.24.19-19.07-4-.06-8.06-.02-12.12-.02-4.15-.01-8.29,0-12.44,0h-12.35v-20.03c1.54-.41,100.71-.47,102.83-.06h0Z"/>
  <path class="cls-2" d="m1291.5,299.64c.1.15.13.36.25.71-.55.05-1.04.12-1.52.13-4.81,0-9.62-.04-14.43.03-1.25.02-2.04-.35-2.78-1.38-4.19-5.83-8.45-11.6-12.72-17.37-1.25-1.7-2.6-3.32-3.89-4.98-2.43-3.12-5.52-4.97-9.54-5.27-2.42-.19-4.83-.2-7.51-.1v28.67c-1.45.48-11.98.62-14.81.24-.41-1.39-.53-66.61-.1-69.21.5-.06,1.06-.2,1.62-.19,12.65.06,25.29.08,37.94.27,2.67.04,5.38.51,7.99,1.1,8,1.81,13.46,8.38,13.96,16.58.23,3.68-.32,7.22-2.06,10.51-2.17,4.11-5.63,6.74-9.91,8.31-1.91.69-3.92,1.1-5.88,1.63-.49.14-.99.25-1.81.45.64.46,1,.78,1.41,1.02,3.98,2.32,7.42,5.27,10.07,9.04,4.63,6.56,9.15,13.2,13.72,19.81h0Zm-21.11-47.96c.12-4.81-2.63-8.1-7.45-8.82-1.3-.19-2.62-.31-3.93-.32-5.91-.04-11.83-.04-17.75-.04-.57,0-1.14.09-1.81.15.01,5.9.01,11.65.01,17.73h2.13c3.68,0,7.36.06,11.04-.02,3.28-.06,6.57-.16,9.84-.43,4.71-.4,7.81-3.72,7.92-8.25Z"/>
  <path class="cls-2" d="m1210.85,288.84v11.5h-56.81c-.43-1.46-.51-67.17-.05-69.29h55.5v11.49h-40.69v15.61c12.52.02,25.01,0,37.76.02.22,3.88.1,7.58.08,11.49h-37.54c-.52,1.56-.69,15.23-.27,19.1,2.29.17,4.63.06,6.97.08,2.31.02,4.61,0,6.92,0h28.13Z"/>
  <path class="cls-2" d="m1184.72,22.22c.01,35.49.02,70.97-.02,106.46,0,2.62-.27,5.26-.65,7.86-1.32,8.86-6.38,14.03-15.25,15.43-3.04.48-6.15.73-9.23.74-15.15.08-30.3.04-45.45.04h-2.59c0,10.04,0,19.89.01,29.88h-30.05c-.19-4.94-.06-9.91-.08-14.88-.03-4.92-.01-9.83-.01-14.96h-74.58c0-44.27,0-88.33-.01-132.61,24.83,0,49.56,0,74.52,0V.17h30c.06.73.16,1.49.16,2.24.01,5.07,0,10.14.01,15.21.01.78.08,1.55.13,2.51,24.37,0,48.58,0,72.96,0,.06.83.13,1.47.13,2.1h0Zm-27.98,103.5V47.07c-1.59-.41-42.38-.52-45.09-.12v78.95c3.01.43,43.7.26,45.09-.18Zm-75.5.04c.39-3.1.23-77.4-.2-78.88h-44.79v78.97c2.4.42,43.57.32,44.99-.09Z"/>
  <path class="cls-2" d="m1137.15,231.22v69.12c-.63.05-1.2.14-1.77.14-3.75.01-7.51-.06-11.26.04-1.48.04-2.36-.4-3.21-1.67-7.71-11.62-15.51-23.19-23.28-34.78-1.65-2.46-3.3-4.92-4.96-7.38-.25-.36-.54-.7-.88-1.14-.68.79-.44,1.6-.44,2.33-.02,8.63,0,17.25,0,25.88,0,4.8,0,9.61-.01,14.41,0,.7-.08,1.41-.13,2.21h-13.49c-.41-1.52-.54-66.53-.11-69.35.72-.04,1.37-.11,2.01-.11,3.56-.02,7.12.04,10.67-.04,1.35-.03,2.14.47,2.87,1.58,9.42,14.21,18.88,28.39,28.34,42.57.42.64.87,1.27,1.56,2.26.43-2.55.19-4.69.23-6.8.04-2.18.01-4.35.01-6.52v-32.67c1.81-.49,11.89-.53,13.86-.08h-.01Z"/>
  <path class="cls-2" d="m1063.89,288.8c.2,3.97.12,7.73.07,11.58h-57.16v-69.07c1.66-.52,53.8-.57,55.72-.04v11.22c-4.51.01-8.95.01-13.4.01h-26.99c-.55,1.47-.68,12.99-.18,15.65h37.75c.25,3.98.14,7.68.09,11.6-12.75,0-25.29,0-37.97.01v19.04h42.07Z"/>
  <path class="cls-2" d="m904.61,267.24c0,7.83.01,15.66-.01,23.5,0,1.18-.03,2.37-.23,3.53-.92,5.25-4.02,6.57-7.99,6.98-.91.09-1.84.03-2.76.03-28.39.01-56.78.01-85.16.01h-85.75c-.59,0-1.18.01-1.78,0-2.05-.05-3.24-1.7-2.46-3.6.36-.88,1.04-1.67,1.73-2.36,6.17-6.2,12.39-12.37,18.58-18.56,16.21-16.2,32.42-32.4,48.62-48.6,1.88-1.88,3.85-3.63,6.56-4.17,1.02-.2,2.08-.32,3.12-.33,6.39-.07,12.78-.11,19.17-.13,24.76-.09,49.52-.16,74.28-.24,2.63,0,5.27-.04,7.9,0,.91.02,1.83.17,2.71.42,1.65.46,2.76,1.56,3.06,3.26.24,1.35.39,2.74.39,4.11.03,12.04.02,24.09.02,36.14Z"/>
  <path class="cls-2" d="m904.6,71.88c0,.59.03,1.19-.04,1.78-.25,2.38-2.16,4.25-4.55,4.42-.79.06-1.58.03-2.37.03h-197.19c-.66,0-1.32-.02-1.98,0-1.03.04-2.01-.02-2.51-1.12-.5-1.08-.49-2.19.18-3.19.4-.6.91-1.13,1.42-1.64,12.31-12.45,24.63-24.9,36.96-37.34,9.82-9.92,19.64-19.84,29.47-29.75.74-.75,1.51-1.47,2.31-2.15,2.19-1.88,4.78-2.69,7.63-2.77h1.19c39.71,0,79.43,0,119.14.02,1.44,0,2.89.14,4.31.38,3.67.62,5.64,2.82,5.97,6.56.08.91.06,1.84.06,2.76v62.01Z"/>
  <path class="cls-2" d="m773.95,216.46c.02,5.34-1.69,9.41-5.46,13.14-21.17,21.02-42.2,42.17-63.28,63.27-.97.98-1.92,1.99-2.91,2.95-.42.41-.87.82-1.38,1.1-2.09,1.18-4.01.09-4.07-2.28-.02-.66-.01-1.32-.01-1.97V98.94c0-.73-.01-1.45.01-2.17.09-3.03,1.98-5.05,4.99-5.33.52-.05,1.05-.02,1.58-.02,20.22,0,40.44-.01,60.66.01,1.37.01,2.76.15,4.12.36,2.25.35,3.9,1.6,4.69,3.75.43,1.16.69,2.4.84,3.63.16,1.36.14,2.76.14,4.14.01,37.72-.05,75.44.08,113.15h0Z"/>
  <path class="cls-2" d="m678.56,202.64c0,.66.02,1.32-.01,1.97-.14,3.37-2.31,5.5-5.68,5.51-13.77,0-27.53,0-41.3,0-7.11,0-14.23,0-21.34,0-1.05,0-2.1-.09-3.14-.24-3.04-.45-4.83-2.34-5.44-5.25-.37-1.78-.5-3.65-.51-5.48-.02-36.14-.02-72.29-.02-108.43,0-2.7.09-5.4-.02-8.1-.16-4.09,1.37-7.41,4.23-10.25,4.45-4.4,8.85-8.84,13.28-13.26,6.49-6.46,12.99-12.9,19.47-19.36,11.48-11.43,22.95-22.87,34.43-34.3.51-.51,1.03-1.04,1.65-1.4,2.14-1.24,4.33,0,4.39,2.46.01.53,0,1.05,0,1.58v97.57c.01,32.33.01,64.65.01,96.98h0Z"/>
  <path class="cls-2" d="m675.6,223.18c2.4-.53,3.57,2.4,2.54,4.18-.39.67-.91,1.28-1.46,1.84-7.5,7.58-15.02,15.15-22.53,22.72-14.55,14.68-29.1,29.36-43.66,44.04-.7.7-1.41,1.39-2.13,2.06-2.41,2.25-5.25,3.45-8.58,3.38-.6-.01-1.19.01-1.78.01-38.59,0-77.18.01-115.77-.02-1.9,0-3.83-.11-5.68-.47-3.08-.6-5.04-2.47-5.44-5.7-.14-1.11-.26-2.22-.26-3.34-.01-20.79-.01-41.59-.02-62.39,0-1.41.1-2.77.92-3.97.99-1.44,2.34-2.28,4.13-2.32.66,0,1.31,0,1.97,0,32.67,0,65.33,0,97.99,0h98.19c.52,0,1.07.09,1.57,0h0Z"/>
  <path class="cls-2" d="m653.57,0c2.63.03,3.84,2.1,2.57,4.43-.22.4-.53.75-.83,1.09-.35.4-.74.76-1.11,1.13-20.9,20.91-41.8,41.82-62.71,62.73-1.72,1.72-3.44,3.45-5.17,5.16-2.5,2.48-5.47,3.83-9.03,3.76-.6-.01-1.19.01-1.78.01-32.08.01-64.15.01-96.23,0-1.19,0-2.38-.01-3.55-.15-2.67-.31-4.18-1.73-4.6-4.37-.19-1.23-.29-2.48-.29-3.73-.02-19.75-.02-39.5-.01-59.25,0-1.18.11-2.37.29-3.53.67-4.47,3.29-6.89,7.78-7.22.99-.07,1.98-.05,2.97-.05,28.25-.01,56.51-.01,84.76-.01,0,0,86.94,0,86.94,0Z"/>
  <path class="cls-2" d="m555.14,115.34c5,0,8.87,3.75,8.85,8.78-.07,17.77-.03,35.55-.02,53.32,0,3.29-1.26,5.86-4.09,7.61-1.45.91-3.06,1.06-4.74,1.06-12.58-.02-25.16,0-37.74,0s-25.02-.14-37.53.07c-5.6.09-9.13-4.14-9.09-9.12.13-17.64.04-35.28.05-52.92,0-4.37,2.47-7.6,6.49-8.52.76-.18,1.56-.22,2.35-.22,25.15,0,50.31.03,75.47-.05h0Z"/>
  <path class="cls-2" d="m433.59,177.37c.03,4.88-3.78,8.68-8.71,8.63-12.58-.14-25.16-.05-37.74-.05s-25.42.02-38.13,0c-4.07,0-7.2-2.58-8.03-6.52-.13-.64-.16-1.31-.16-1.96-.01-17.84-.02-35.68,0-53.52.01-4.99,3.46-8.41,8.5-8.41,25.22-.02,50.44,0,75.67-.03,5.37,0,8.62,4.14,8.59,8.55-.11,17.77-.12,35.54,0,53.32h0Z"/>
  <path class="cls-2" d="m433.54,72.6c.24,3.58-2.73,5.66-5.5,5.57-4.67-.15-9.35-.04-14.03-.04h-183.18c-.66,0-1.32.02-1.97,0-2.1-.06-3.22-1.71-2.35-3.64.39-.87,1.08-1.65,1.76-2.34,7.27-7.35,14.57-14.67,21.86-22,14.9-14.99,29.81-29.98,44.72-44.96.55-.56,1.12-1.11,1.7-1.65,2.47-2.33,5.42-3.38,8.8-3.37,8.82.01,17.65,0,26.48,0,30.43,0,60.86-.02,91.29.02,1.82.01,3.68.24,5.45.69,3.06.79,4.6,2.8,4.87,5.96.1,1.04.09,2.1.09,3.16v61.62c0,.33-.03.66,0,.98h0Z"/>
  <path class="cls-2" d="m433.54,231.3v59.45c0,.79,0,1.58-.06,2.36-.31,5.05-3.28,7.96-8.33,8.17-.93.04-1.85.02-2.77.02h-84.36c-28.39,0-56.77,0-85.16.01-.59,0-1.18-.02-1.78,0-1.01.04-2.03.03-2.53-1.07-.53-1.15-.51-2.31.2-3.39.32-.48.75-.9,1.17-1.32,22.64-22.62,45.28-45.22,67.9-67.86,2.95-2.95,6.3-4.42,10.56-4.41,32.53.08,65.07.04,97.6.04.79,0,1.58-.02,2.37.05,3.18.27,4.88,2,5.12,5.19.06.92.07,1.84.07,2.76h0Z"/>
  <path class="cls-2" d="m303.51,217.47c0,1.25.02,2.51-.13,3.74-.29,2.28-1.3,4.27-2.8,6-.56.65-1.15,1.27-1.75,1.88-22.11,22.12-44.23,44.24-66.35,66.36-.65.65-1.3,1.34-2.07,1.81-2.09,1.27-4.14.09-4.19-2.35-.01-.39,0-.79,0-1.18,0-65.12.03-130.23-.06-195.34-.01-5.27,2.84-7.03,7.07-7,19.89.11,39.79.04,59.68.06,1.44,0,2.88.15,4.32.3,2.8.3,4.69,1.86,5.35,4.53.51,2.09.77,4.28.78,6.43.08,13.63.06,27.26.07,40.89v16.98h.08v56.89h0Z"/>
  <path class="cls-2" d="m207.76,8.86c.03,21.19.03,42.39.02,63.58,0,3.81-2,5.69-5.95,5.69-33.06.01-66.12.01-99.17.01H4.69c-.6,0-1.19-.01-1.78,0-1.02.04-2.02.01-2.54-1.08-.55-1.15-.48-2.3.23-3.37.29-.43.67-.81,1.04-1.18,11.85-11.98,23.71-23.96,35.56-35.94,9.91-10.02,19.81-20.03,29.72-30.04,1.07-1.08,2.14-2.15,3.26-3.17,2.39-2.2,5.25-3.18,8.47-3.18,39.84,0,79.68-.01,119.52.03,1.68,0,3.4.34,5.03.79,2.34.66,3.8,2.3,4.23,4.73.18,1.04.34,2.09.34,3.13h0Z"/>
  <path class="cls-2" d="m207.78,230.1c.02,20.53.02,41.06,0,61.6,0,.84-.13,1.7-.26,2.54-.78,4.98-3.83,6.69-8.13,7.04-.92.07-1.85.03-2.77.03H24.58c-.59,0-1.19-.02-1.78.01-1.02.03-1.99-.01-2.54-1.09-.58-1.16-.51-2.3.2-3.36.36-.54.85-1.01,1.31-1.47,3.38-3.41,6.77-6.82,10.17-10.22,19.11-19.15,38.24-38.28,57.35-57.44,2.03-2.04,4.24-3.77,7.18-4.22,1.23-.19,2.49-.2,3.73-.2,18.97-.02,37.93,0,56.89,0,14.42,0,28.84,0,43.26,0,1.24,0,2.5.13,3.71.38,1.85.39,2.98,1.62,3.35,3.47.2.96.36,1.95.37,2.93h0Z"/>
  <path class="cls-2" d="m76.95,99.77c.14.9.05,1.84.05,2.76.01,37.65.01,75.3.01,112.95,0,1.12.04,2.25-.09,3.36-.25,2.2-1.08,4.2-2.53,5.9-.89,1.05-1.83,2.07-2.8,3.05l-54.66,54.84c-3.76,3.78-7.52,7.56-11.3,11.32-.6.59-1.27,1.19-2.02,1.54-1.8.84-3.48-.23-3.58-2.2-.04-.72-.02-1.45-.02-2.17V99.18c0-.79.03-1.58,0-2.37-.09-2.75,1.84-5.12,5.17-5.35.46-.04.92-.02,1.38-.02,20.29,0,40.57,0,60.85.02,1.38,0,2.77.13,4.12.38,2.07.38,3.7,1.51,4.42,3.53.5,1.41.76,2.92,1,4.4Z"/>
</svg>