<?xml version="1.0" encoding="UTF-8"?>
<svg id="_图层_1" data-name="图层 1" xmlns="http://www.w3.org/2000/svg" viewBox="0 0 1760.5 1076.59">
  <defs>
    <style>
      .cls-1 {
        fill: #fff;
      }

      .cls-2 {
        fill: #c7c7c7;
      }
    </style>
  </defs>
  <path class="cls-1" d="m1755.51,1076.33c-.5-7.9-1.44-15.81-1.44-23.71-.07-342.89-.07-685.77,0-1028.66,0-7.9.94-15.81,1.44-23.71,1.59,3.19,4.58,6.37,4.58,9.56.21,352.32.21,704.64,0,1056.96,0,3.19-2.99,6.38-4.58,9.56Z"/>
  <path class="cls-2" d="m1600.85,270.54c20.14-.63,27.68,7.09,25.45,26.53-.81,7.08,1.98,15.35-.8,21.23-3.25,6.91-10.69,16.72-16.46,16.82-65.32,1.2-130.67.55-196,.94-15.63.09-18.4-8.46-18.33-21.33.02-4.78.05-9.55.06-14.32.02-4.78.03-9.56.04-14.33.02-4.78.02-9.55.02-14.32.05-31.1-.02-62.19-.02-93.29-.03-20.9.14-41.8.19-62.7.03-10.72.03-21.44-.05-32.16-.01-2.28-.03-4.56-.06-6.84,0-1.33-.02-2.65-.05-3.98-.03-3.23-.08-6.47-.14-9.71-.04-2.28-.09-4.56-.14-6.84s-.11-4.56-.17-6.84c-.55-20.07,6.81-26.13,26.34-25.82,60.55.98,121.12.82,181.67.09,17.07-.21,25.87,4.6,23.84,22.87-.62,5.51-.63,11.21.02,16.71,2.18,18.39-4.94,25.75-24.09,25.17-36.62-1.11-73.37,1.08-109.93-.75-24.47-1.23-24.94,12-24.37,29.66.53,16.21-2.69,32.23,23.23,30.49,28.55-1.93,57.37.44,86.01-.71,18.66-.74,26.86,5.97,24.92,24.71-.49,4.73-.52,9.6.02,14.32,2.19,19.31-5.33,27.4-25.53,26.56-29.43-1.22-59.01.92-88.42-.5-23.92-1.16-20.07,14.51-19.9,28.4.18,14.25-5.3,31.41,20.32,30.55,37.41-1.27,74.92.55,112.33-.61Z"/>
  <path class="cls-2" d="m1602.58,904.17c18.82.58,17.62,11.01,13.76,22.25-47.03-15.6-92.55-13.66-139.7-1.82-6.94-15.21-5.32-19.02,12.59-20.34,7.91-.58,15.93-.62,23.83,0,14.16,1.1,26.73.42,28.62-22.51,14.71,29.21,39.06,21.74,60.9,22.42Z"/>
  <path class="cls-2" d="m1590.15,989.15c10.2,9.57,20.5,19.04,31.02,28.8q-13.3,7.27-54.07-34.14c-8.25,17.8,6.6,44.73-19.72,53.26-9.09,2.95-19.94.47-30.27-2.69,12.54-11.26,40.86-4.36,31.39-34.39-23.82,12.21-46.97,24.07-70.11,35.94-1.51-2.42-3.01-4.85-4.52-7.27,23.18-14.97,46.35-29.94,69.52-44.91-1.25-1.94-2.5-3.89-3.74-5.83-20.59,10.3-41.18,20.61-61.77,30.91-1.47-2.78-2.94-5.56-4.42-8.35,18.07-10.75,36.13-21.51,54.2-32.27-.86-1.82-1.72-3.64-2.58-5.47-15.92,5.82-31.84,11.63-47.76,17.44-1.23-2.52-2.45-5.05-3.67-7.57,14.58-7.74,29.17-15.48,48.71-25.86-14.23-3.77-23.01-6.1-31.79-8.43.3-1.94.59-3.89.88-5.83h107.9c.19,2.36.39,4.72.59,7.08-19.22,1.7-38.44,3.4-59.75,5.28,17.37,46.43,40.7,3.55,60.53,7.87,3.17,14.48-29.37,18.78-10.57,36.43Z"/>
  <path class="cls-2" d="m1428.31,540.58c33.73,30.77,55.41,30.19,80.81,0h-80.81Zm11.63-118.11c10.86-22.01,29.58-9.72,44.29-10.8,6.13-.45,13.09,10.3,19.67,15.96-.91,2.02-1.83,4.04-2.75,6.05,32.54,0,65.12-.88,97.59.57,9.13.4,25.28,7.14,25.59,11.81,1.02,15.3.57,34.48-8.03,45.15-4.83,5.99-30.15,11.52-39.67-9.84-1.61-3.6-8.88-6.55-13.57-6.6-45.36-.49-90.72-.3-139.05-.3v29.05c43.93,0,87.53-.7,131.08.43,12.96.34,25.78,5.82,38.67,8.95-7.03,12.64-12.11,27.04-21.58,37.47-11.41,12.59-26.54,21.8-39.77,39.08,22.93,2.81,45.85,5.6,68.78,8.45,11.34,1.4,25.65-1.4,23.56,18.07-1.78,16.58-5.13,30.65-27.08,25.88-36.46-7.92-72.81-16.47-109.49-23.19-14.12-2.59-29.49-3.35-43.49-.7-33.59,6.35-66.69,15.27-100.02,23.04-18.14,4.22-27.67-1.5-30.83-21.54-3.39-21.49,9.73-21.21,23.55-23.19,22.58-3.23,45.07-7.08,74.91-11.83-18.17-14.68-24.39-30.74-47.61-24.81-8.54,2.18-21.02-11.1-32.18-17.61,17.81-22.97,32.51-41.91,47.2-60.85-2.03-2.19-4.05-4.38-6.08-6.57-4.67,2.93-9.34,5.86-14.02,8.78-5.48,3.43-11.02,9.75-16.43,9.65-10.18-.19-28.06-2.38-29.02-6.76-3.28-14.9-1.57-31.27.71-46.71.42-2.9,12.19-5.7,18.78-5.84,28.67-.6,57.4.48,86.04-.68,7.08-.28,17.46-4.93,20.25-10.57Z"/>
  <path class="cls-2" d="m1414.17,720.75c11.38,1.52,22.99,1.37,34.62,1.1,5.92-.13,11.85-.3,17.75-.29,6.59,0,13.19.14,19.79.25,9.5.16,19,.24,28.42-.29,1.85-.1,3.69-.23,5.53-.39,1.15-.09,2.29-.2,3.43-.32,5.48-.57,13.88-10.21,13.88-15.69-.01-5.23-9.06-14.78-14.41-14.98-36.52-1.34-73.14-1.34-109.67-.04-5.66.2-11,9.29-16.49,14.28,5.68,5.72,10.82,15.52,17.15,16.37Zm-45.85,42.47c-16.04.37-23.3-4.72-22.68-21.69.92-25.4.54-50.86.14-76.28-.21-13.09,5.04-18.33,18.38-18.27,69.93.28,139.87.13,209.8-.24,13.64-.07,17.98,6.22,17.75,18.98-.45,25.43-.67,50.88.14,76.28.5,15.47-5.57,21.36-20.9,21.08-33.36-.6-66.75-.19-100.12-.19v.09c-34.18,0-68.36-.54-102.51.24Z"/>
  <path class="cls-1" d="m1394.74,178.47c0-20.9.19-41.8.26-62.7-.05,20.9-.22,41.8-.19,62.7,0,31.1.07,62.19.02,93.29.04-31.1-.04-62.19-.09-93.29Z"/>
  <path class="cls-1" d="m1394.81,286.08c.01-4.77.02-9.55.02-14.32,0,4.77,0,9.54-.02,14.32Z"/>
  <path class="cls-1" d="m1394.77,300.41c.02-4.78.03-9.55.04-14.33-.01,4.77-.02,9.55-.04,14.33Z"/>
  <path class="cls-2" d="m1349.68,310.95c3.72,6.53,6.48,13.6,11.64,24.58-26.58,0-48.7,1.24-70.54-.74-6.76-.61-14.69-8.76-18.75-15.48-20.98-34.78-40.84-70.24-61.19-105.41-3.86-6.67-8.14-13.1-13.11-21.07-21.8,15.39-35.47,31.17-33.02,58.15,2,22.13,0,44.59.38,66.9.23,13.17-5.19,18.36-18.51,18.2-62.47-.74-52.42,5.98-52.81-48.7-.56-78.9.5-157.82-.47-236.71-.26-20.92,6.3-27.97,27.38-27.16,49.82,1.92,43.97-5.73,44.48,45.22.16,15.68.03,31.35.03,54.65,11.77-10.12,18.28-15.02,23.97-20.74,12.92-12.99,25.47-26.35,38.12-39.61,40.42-42.38,57.37-47.62,124.41-35.07-26.84,28.31-50.76,53.43-74.56,78.65-32.23,34.16-30.15,23.89-8.08,63.26,26.48,47.25,53.83,94.01,80.63,141.08Z"/>
  <path class="cls-2" d="m1346.63,1044.65c-1.9-15.66-3.39-25.4-4.16-35.19-.56-7.12-.15-14.31-.18-21.46q-.13-32.36-33.32-36.77c-2.27-.3-4.61-1.08-6.56-2.24-1.16-.68-1.6-2.56-2.23-3.66,14.96-5.98,32.96-7.81,40.27-17.62,7.14-9.57,3.38-27.28,4.4-41.42,2.93-.02,5.87-.04,8.81-.06,1.09,8.58,3.72,17.29,2.96,25.7-1.83,20.46,5.37,30.01,26.85,27.43,5.5-.67,11.39,1.88,17.2,7.28-3.97,1.54-7.83,4.02-11.92,4.47-31.73,3.56-31.63,3.44-31.88,36.44-.11,15.08-.65,30.16-1.38,45.22-.09,1.85-2.55,3.59-8.86,11.88Z"/>
  <path class="cls-2" d="m1248.85,944.87c21.04-13.03,31.58-8.44,32.17,14.74.4,15.64.08,31.31.08,50.62,12.55-4.09,19.57-6.37,26.59-8.66,1.35,2.15,2.7,4.3,4.06,6.45-13.14,9.4-26.27,18.8-40.33,28.87-15.96-31.55,16.01-70.28-22.57-92.02Z"/>
  <path class="cls-2" d="m1157.34,903.78c6,11.38,10.62,23.49,16.05,35.86-16.57,8.11-26.15,4.3-28.57-17.68-1.25-11.37-4.19-19.85-16.52-17.04-8.43,1.93-17.43,6.9-23.32,13.19-3.74,4-7.17,8.31-10.45,12.75-5.3,7.17-10.22,14.71-15.5,21.96.26-6.15-.49-12.62,1.27-18.3,1.55-5.03,6.89-8.77,9.16-13.72,4.09-8.94,5.25-24.61,11-26.35,13.92-4.21,29.84-2.91,44.83-1.88,4.34.3,9.56,6.49,12.05,11.21Z"/>
  <path class="cls-2" d="m1145.11,953.97c18.58-.27,23.49,7.12,14.1,23.11-5.97,10.19-12.75,19.9-21.02,32.67,14.11,7.12,27.27,13.75,40.43,20.38-.84,2.76-1.68,5.51-2.52,8.27-9.38-2.45-20.17-2.74-27.84-7.78-17.54-11.51-33.05-10.66-50.54-.09-8.77,5.31-19.96,6.6-30.06,9.71-1.08-3.03-2.16-6.07-3.23-9.1,14.27-6.56,28.55-13.11,44.44-20.41-10.5-20.21-20.11-38.69-29.7-57.15,12.78.1,25.58.32,38.37.43,9.19.08,18.38.09,27.57-.04Zm-47.8,14.09c12.04,12.83,19.36,20.64,26.69,28.44,7.96-7.88,15.92-15.77,23.89-23.65-1.4-1.6-2.8-3.19-4.19-4.79h-46.39Z"/>
  <path class="cls-1" d="m1079.02,953.28c.04.07.07.14.11.21-.17,0-.34,0-.51,0l.4-.2Z"/>
  <path class="cls-1" d="m1079.02,953.28l-.4.2h-.03c.15-.2.3-.41.44-.61,0,.14,0,.27-.01.41Z"/>
  <path class="cls-1" d="m1078.61,953.48c-.07.04-.09.05-.08.04.17-.23.34-.47.5-.7.01.02.01.04,0,.05-.14.2-.29.41-.44.61h.02Z"/>
  <path class="cls-1" d="m1078.44,953.57l.07-.04h.01s0-.01.01-.01c-.01.01.01,0,.08-.04h.01c.17,0,.34,0,.51,0,0,.03.03.06.04.09-.24,0-.49,0-.73,0Z"/>
  <path class="cls-2" d="m1055.86,484.41c-8.85,11.08-40.52,14.74-45.55,3.35-6.77-15.36-17.78-13.53-29.34-13.31-13.95.27-25-.51-24.9-19.61.09-17.57,8.4-21.89,23.71-21.3,13.2.51,24.34,1.44,31.84-16.45,3.13-7.48,27.82-5.92,44.88-8.85,1.61,11.42,2.45,17.37,3.54,25.16,31.25,0,61.43.31,91.58-.32,4.64-.09,12.63-3.84,13.21-6.97,3.1-16.86,15.01-15.38,27.21-15.83,15.43-.56,29.32-.3,26.34,23.15,11.43,0,20.87.24,30.29-.06,14.7-.47,23.97,2.88,23.9,21.05-.07,18.73-10.21,20.33-24.52,20.02-14.55-.3-28.26-2.45-39.02,14.76-3.38,5.4-27.25-1.99-41.72-3.63-.38-.05-.44-1.53-.92-2.12-11.28-13.87-99.3-13.09-110.53.96Z"/>
  <path class="cls-1" d="m1040.71,938.45c6.06-1.71,10.01-1.39,12.54,1.33-2.54-2.72-6.48-3.03-12.54-1.33Z"/>
  <path class="cls-2" d="m1057.5,998.89c7.04.8,13.31,1.51,19.59,2.23.82,1.69,1.64,3.39,2.47,5.09-10.47,7.46-20.93,14.93-33.58,23.95-3.26-11.87-2.13-23.86-.99-35.36.96-9.75,1.93-19.15.21-27.82,0,0,.01-.01,0-.01-.61-3.08-1.55-6.07-2.97-8.96,0,0,.01,0,0-.01-1.05-2.16-2.37-4.26-4-6.29t0-.01c-2.43-3.06-5.57-5.96-9.57-8.68.71-.32,1.41-.62,2.09-.91.7-.3,1.38-.58,2.05-.86.17-.07.34-.14.51-.2.83-.34,1.63-.65,2.4-.94.85-.32,1.68-.62,2.47-.88.68-.23,1.33-.43,1.96-.62.19-.06.38-.11.57-.16,6.06-1.7,10-1.39,12.54,1.33,2.88,3.09,3.94,9.26,4.19,19.09.33,12.67.06,25.37.06,40.02Z"/>
  <path class="cls-1" d="m1040.14,938.61c-.63.19-1.28.39-1.96.62.68-.23,1.33-.44,1.96-.62Z"/>
  <path class="cls-2" d="m979.6,23.91c46.43.01,46.08-.01,42.77,53.56-.79,12.81-5.04,19.16-18.27,18.71-9.49-.32-19.01.08-28.51.1q-41.6.1-41.48-40.6.09-31.79,45.49-31.77Z"/>
  <path class="cls-2" d="m999.42,605.96c-1.59-13.34-3.03-25.32-4.44-37.14,38.69-9.03,41.65-6.58,56.37,25.46,3.15,6.87,16.9,10.64,26.28,11.86,3.09.4,10.79-11.52,11.29-18.19,2.67-35.53,2.11-35.58-33.43-35.63-23.1-.04-46.2-.5-69.28.07-16.4.41-19.68-8.07-19.75-22.45-.07-15.11,6.75-19.17,20.39-18.92,27.07.5,54.2.94,81.2-.55,7.49-.42,16.55-6.1,21.48-12.15,10.68-13.09,45-11.68,54.48,2.42,3.45,5.12,11.7,9.56,17.94,9.81,27.04,1.1,54.15,1.02,81.21.38,15.09-.35,21.59,4.98,21.51,20.71-.09,15.77-6.97,20.95-21.82,20.71-28.66-.47-57.5-1.82-85.96.67-27.95,2.44-12.41,25.87-14.69,39.8-2.53,15.4,10.89,16.88,20.72,13.68,6.41-2.08,12.7-10.27,15.34-17.15,8.78-22.92,21.83-30.84,45.35-23.38,4.16,1.32,8.82,8.35,9.1,12.99.45,7.57-2.51,15.34-4.71,26.48,8.86.82,15.12,2.25,21.25,1.81,15.49-1.1,23.15,3.35,23.22,21.06.07,18.65-9.6,20.95-24.07,20.41-11.5-.42-23.02-.08-34.53-.08-1.35,2.45-2.7,4.89-4.04,7.34,11.33,14.59,21.31,30.53,34.26,43.5,28.62,28.66,29.24,29.33-1.7,60.42-32.79-20.47-55.87-49.42-73.45-83.95-4.83-9.5-13.73-16.92-20.77-25.3-2.2,10.28-5.78,20.48-6.3,30.84-1.05,20.65-.9,41.41-.34,62.09.58,21.18-13.79,19.21-27.6,19.4-13.88.2-25.47-.62-24.7-19.72.93-23.06.31-46.18.05-69.28-.09-7.45-1.13-14.9-4.77-23.7-30.36,45.48-58.73,91.38-113.58,109.28-18.74-31.59-16.02-40.67,9.33-59.47,16.44-12.19,29.99-28.28,44.83-42.63-1.5-2.93-2.99-5.86-4.48-8.79-14.69,0-29.4-.59-44.05.16-16,.81-20.76-6.85-20.46-21.67.27-13.78,4.79-20.97,19.67-19.81,6.94.54,14.03-.76,23.65-1.39Z"/>
  <path class="cls-2" d="m941.45,949.01c4.82.59,12.01,8.39,12.1,13.15.09,4.2-7.93,11.63-12.81,12.01-4.78.36-10.11-6.36-19.02-12.69,9.31-6.27,14.96-13.05,19.73-12.47Z"/>
  <rect class="cls-2" x="947.58" y="126.19" width="63.34" height="209.9"/>
  <path class="cls-2" d="m896.85,428.27c20.92-.38,25.89,9.2,18.54,26.68-10.17,24.19-21.42,47.92-32.32,71.8-6.97,15.29-4.71,25.11,14.59,24.11,15.07-.77,21.39,5.1,21.1,20.87-.27,14.76-4.5,23.16-20.47,21.46-16.69-1.77-19.88,7.38-19.65,21.67.54,33.41.3,66.83-.01,100.25-.31,33.03-13.43,46.49-45.89,47.69-6.35.23-12.73.12-19.09.13-34.08.05-35.18-.98-40.34-39.36,5.96-.87,11.93-2.26,17.95-2.52q35.59-1.54,35.63-38.03c.01-23.08-.54-46.17.17-69.22.47-15.36-5.43-22.13-21-20.61-7.09.69-14.36-.44-21.46.16-16.1,1.38-25.18-2.65-25.28-21.77-.11-20.49,11.62-21.2,26.33-20.69,8.74.31,17.62.73,26.21-.48,4.79-.67,11.91-3.56,13.22-7.17,8.25-22.77,15.16-46.01,23.89-73.4-23.31,0-45.2-.37-67.08.14-14.22.33-22.25-3.5-22.49-19.92-.25-17,6.87-22.11,22.88-21.82,38.18.7,76.39.72,114.57.03Z"/>
  <path class="cls-2" d="m866.07,270.75c14.83-.33,21.57,4.53,21.45,20.46-.44,54.4,1.88,44.1-42.07,44.66-43.73.55-87.49-.7-131.2.41-19.29.5-26.88-5.08-26.26-25.4,1.29-42.91.39-85.88.39-128.82h.08c0-45.33.43-90.66-.24-135.98-.23-16.06,4.73-22.99,21.83-22.48,57.06,1.7,50.34-7.24,50.74,48.62.41,58.04.62,116.11-.25,174.15-.28,18.38,5.25,25.78,24.43,24.83,26.98-1.33,54.07.16,81.1-.45Z"/>
  <path class="cls-2" d="m848.6,949.29c.05,2.95.11,5.89.16,8.83-10.53.75-21.48,0-31.43,2.79-6.53,1.82-11.63,8.77-17.37,13.43,5.92,4.62,11.21,11.48,17.89,13.33,9.98,2.75,20.93,1.97,31.47,2.7.1,2.52.21,5.05.31,7.57-13.22,1.01-29.16-2.13-38.87,4.24-9.13,5.99-11.69,22.01-23.35,34.05v-111.97c-3.07-.74-6.14-1.47-9.2-2.21-8.05,10.53-16.09,21.06-24.13,31.59-2.43-1.06-4.86-2.12-7.29-3.18,9.49-21.69,18.98-43.38,28.48-65.06,1.95.09,3.9.19,5.84.29,1.79,6.78,3.57,13.55,5.85,22.24,21.77.95,44.16,1.93,66.54,2.91.15,2.66.3,5.31.44,7.96-11.52.66-23.46-.31-34.41,2.55-7.23,1.89-13.03,9.28-19.47,14.2,6.39,4.04,12.32,9.91,19.29,11.67,9.33,2.35,19.46,1.53,29.25,2.07Z"/>
  <path class="cls-2" d="m663.64,613.6c-.68,7.23,5.95,15.15,9.22,22.75,2.85-.91,5.7-1.81,8.55-2.72,15.6-36.15,17.43-74.61,16.04-113.36-.14-4.05-7.34-7.86-11.26-11.77-3.46,4.48-9.19,8.58-9.99,13.49-5,30.42-9.68,60.94-12.56,91.61Zm14.57-200.31c.65,1.32,2.03,2.76,1.9,4.05-4.97,49.15-5.01,49.76,45.1,51.16,16.81.48,22.07,6.95,21.97,22.99-.37,55.14-1.74,109.85-22.81,162.26-2.45,6.1,3.36,18.71,9.2,24.23,9.53,9,22.23,14.64,36.62,23.57-9.96,12.07-16.82,24.57-27.35,31.43-5.65,3.68-20.32.72-26.24-4.52-18.56-16.45-33.65-16.84-49.95,2.47-5.47,6.48-13.36,12.23-21.3,15.01-11.25,3.94-28.91,10.74-34.36,5.82-12.85-11.58-4.21-39.13,11.29-49.57,9.09-6.12,17.56-13.19,26.07-19.65-1.08-5.07-.98-6.24-1.44-6.53-39.38-24.53-35.9-59.31-24.68-97.13,4.24-14.28,4.39-29.88,5.58-44.95.98-12.45,3.97-26.08-16.26-27.74-3.53-.29-8.69-12.35-8.38-18.74.3-6.14,6.06-16.45,10.59-17.12,14.2-2.12,15.58-10.08,15.98-21.63,1.44-42.32,3.59-43.69,48.47-35.41Z"/>
  <path class="cls-2" d="m740.25,887.45c-2.48,49.52-4.95,99.03-7.43,148.54-3.12-.12-6.23-.25-9.35-.37v-74.43c-8.7,4.03-13.38,6.2-25.87,11.98,14.58-33.03,26.56-60.19,38.55-87.35,1.37.55,2.73,1.09,4.1,1.63Z"/>
  <path class="cls-2" d="m498.89,19.36c87.7.66,158.08,72.53,157.86,161.2-.22,88.09-72.43,160.23-159.6,159.45-87.92-.78-158.38-72.66-158.03-161.18.35-88.23,72.4-160.14,159.77-159.47Zm-87.27,158.49c-.91,48.94,38.14,89.6,86.19,89.73,47.36.13,85.13-38.4,85.59-87.3.46-49-36.74-87.95-84.33-88.29-47.46-.34-86.56,38.05-87.45,85.86Z"/>
  <path class="cls-2" d="m553.38,881.05c11.44,35.23,38.84,34.04,66.25,32.85,1.52,3.4,3.04,6.79,4.56,10.19-32.09,26.97-64.17,53.93-98.51,82.78,32.51,26.12,72.29,7.7,107.49,17.81-2.13,4.01-3,7.5-4.18,7.6-37.78,3.41-75.35,8.5-111.5-11.07-8.76-4.74-22.82.3-41.35,1.16,10.88-9.52,18.97-17.93,28.33-24.53,29.54-20.81,59.56-40.94,89.39-61.34-.98-3.61-1.96-7.22-2.93-10.82h-97.86c.01-3.74.03-7.47.04-11.2,18.77-.89,37.54-1.78,57.73-2.74-.79-8.94-1.48-16.76-2.18-24.58,1.58-2.03,3.15-4.07,4.72-6.11Z"/>
  <path class="cls-2" d="m344.31,911.85c6.6,3.68,13.19,7.37,22.57,12.62,6.89-5.43,12.53-9.88,18.17-14.33-7.04-2.97-14.18-8.45-21.11-8.21-6.65.22-13.1,6.37-19.63,9.92Zm21.86,43.69c7.6-6.4,13.18-11.09,18.75-15.78-6.56-2.58-13.23-7.46-19.64-7.12-7.04.36-13.83,5.53-20.72,8.61,6.24,4.13,12.49,8.26,21.61,14.29Zm17.45-64c5.15.2,13.85,8.3,14.28,13.32,1.67,19.58.68,39.39.68,59.67-12.31-.98-21.86-1.74-31.4-2.5-.67,2.07-1.34,4.14-2,6.2,15.22,7.9,30.44,15.79,45.66,23.68-.51,2.13-1.03,4.27-1.54,6.41-11.13-1.62-22.26-3.24-34.51-5.02-1.97,15.04-3.81,29.16-5.66,43.28-3-.03-6.01-.06-9.01-.1-.67-12.44-3.14-25.12-1.61-37.29,2.26-17.98-4.32-33.08-20.49-34.42-16.06-1.34-24.02,11.94-24.52,30.47-.74,26.94-19.72,42.9-43.09,37.37,7.53-6.36,14.67-10.96,19.86-17.19,4.78-5.72,7.47-13.18,14.53-26.26-18.45,5.52-29.09,8.7-39.72,11.88-1.01-2.11-2.01-4.22-3.02-6.33,14.72-9.03,29.45-18.06,50.11-30.73h-38.47c0-20.22-.84-40.53.66-60.67.33-4.42,8.88-11.59,13.84-11.76,31.78-1.1,63.65-1.22,95.42-.01Zm-98.05,27.65c14.16,0,25.05.77,35.65-.65,2.16-.29,5.99-10.9,4.26-13.26-7.05-9.68-31.05-3.52-39.91,13.91Zm21.71,30.55c6.9.21,13.98-5.41,20.98-8.49-5.44-4.02-10.87-8.05-17.67-13.09-9,4.53-15.94,8.03-22.89,11.53,6.52,3.59,12.96,9.85,19.58,10.05Z"/>
  <path class="cls-2" d="m286.49,23.71c17.19-.33,22.02,7.17,21.96,22.87-.31,89.24-.36,178.48.11,267.72.09,16.86-6.9,22.08-22.98,21.85-60.53-.87-49.58,5.28-50.59-48.38-.39-20.71-.74-41.46.17-62.14.66-15.2-4.56-21.77-20.35-21.35-27.87.73-55.79.81-83.65-.05-17.03-.53-22.31,6.94-21.89,22.92.72,27.87-.46,55.79.38,83.65.53,17.72-4.55,26.12-24.24,25.53-57.51-1.72-47.35,6.21-48.2-48.16-.58-36.64-.11-73.3-.11-109.95h.08c0-44.62.45-89.25-.25-133.86-.24-15.61,5.47-20.92,20.91-20.64,59.42,1.05,51.08-6.77,51.52,50.14.5,65.46.15,65.46,64.52,65.48q61.05,0,61.04-60.99c0-1.59-.03-3.19.01-4.78,1.29-55.89-10.3-48.68,51.56-49.86Z"/>
  <path class="cls-2" d="m113.74,957.18c-.16,15.48,5.82,20.92,20.93,20.79,15.08-.14,22.37-5.62,20.23-21.17,2.28-17.14-8.06-19.09-21.72-19.24-14.22-.15-19.29,5.41-19.44,19.62Zm66.54,65.07c1.76.09,3.38,2.89,5.07,4.44-.25,2.28-.49,4.56-.73,6.85-38.44,0-76.88.43-115.29-.67-3.82-.11-10.04-9.33-10.54-14.74-1.46-15.79-1.46-31.86-.39-47.7,1.16-17.27.76-32.78-14.14-36.4,7.2-16.51,13.87-31.79,23.47-53.81,2.09,13.19,1.81,20.72,4.65,26.79,3.02,6.46,9,11.55,13.68,17.24,4.92-5.57,11.15-10.49,14.35-16.92,2.81-5.67,2.23-13.03,3.46-21.83,18.93,9.22-1.76,39.47,29.35,40.13,32.15.68,15.89-27.47,29.69-39.75,10.96,14.05-2.64,42.89,23.83,42.15-6.22,10.72-14.55,20.2-17.26,31.08-2.94,11.84-.67,24.99-.67,35.7h-68.05c0-8.61.22-21.55-.08-34.47-.23-9.94,2.54-21.81-13.77-22.4-16.22-.59-14.61,10.49-14.88,21q-1.58,61.73,60.66,61.77c15.87.04,31.74.74,47.59,1.54Z"/>
</svg>