<?xml version="1.0" encoding="UTF-8"?>
<svg id="_图层_1" data-name="图层 1" xmlns="http://www.w3.org/2000/svg" viewBox="0 0 1808 579.69">
  <defs>
    <style>
      .cls-1 {
        fill: #d3d3d3;
      }
    </style>
  </defs>
  <path class="cls-1" d="m1200.97,80.91v263.86h-79.72V10.44c2.61-.11,5.18-.33,7.75-.33,63.18-.01,126.37-.04,189.55,0,56.28.04,104.21,39.59,115.23,94.99,10.81,54.37-19.13,109.7-70.83,130.9-1.96.8-3.92,1.61-6.85,2.82,28.63,35.35,56.86,70.22,85.78,105.94-2.78.26-4.56.56-6.34.57-26.87.03-53.74.14-80.61-.16-3.12-.03-7.28-1.55-9.16-3.85-44.19-54.19-88.14-108.58-132.12-162.94-.59-.73-1.05-1.55-2.57-3.85,3.86,0,6.55,0,9.25,0,28.32-.04,56.65.2,84.97-.21,26.73-.38,46.67-20.46,46.83-46.33.16-26.19-19.14-46.97-45.67-47.49-33.88-.67-67.78-.21-101.67-.21-.93,0-1.86.28-3.82.6Z"/>
  <path class="cls-1" d="m489.52,193.73v151.11h-79.87V10.6h79.71v149.17c7.16-6.57,14.37-12.46,20.74-19.15,39.57-41.51,79.01-83.16,118.34-124.89,3.97-4.21,8.08-5.81,13.89-5.75,29.05.3,58.1.13,87.15.13,2.07,0,4.14,0,8.05,0-53.64,56.54-105.98,111.73-159.05,167.67,52.69,55.55,105.17,110.88,158.97,167.6-4.03,0-6.32,0-8.6,0-29.05,0-58.11-.18-87.15.13-5.91.06-9.75-1.95-13.69-6.13-44.16-46.84-88.49-93.51-132.79-140.21-1.29-1.36-2.73-2.6-5.71-5.43Z"/>
  <path class="cls-1" d="m1808,89.57c-23.38,11.9-46.35,23.59-69.23,35.24-39.36-57.83-112.86-58.48-154.33-17.62-40.47,39.88-39.24,105.79,3.58,144.42,43.28,39.04,113.56,33.91,150.61-20.96,22.83,11.64,45.78,23.34,68.71,35.04-21.76,45.38-85.43,96.05-166.87,89.26-88.33-7.36-155-73.46-163.2-162.88-7.65-83.46,45.22-160.41,125.87-184.49,84.68-25.28,167.73,15.38,204.86,81.99Z"/>
  <path class="cls-1" d="m993.76,230.72c23.22,11.84,46,23.46,68.78,35.08-26.23,51.25-95.18,100.64-179.82,87.68-84.47-12.93-148.09-83.78-151.14-166.8-3.18-86.8,52.46-161.41,135.84-181.61,84.05-20.36,162.02,23.2,195.38,84.51-22.97,11.72-45.92,23.43-69.33,35.37-20.95-30.07-49.21-46.53-85.85-46.31-27.99.17-51.76,11.17-70.98,31.45-37.94,40.01-35.01,104.16,5.94,141.3,41.57,37.7,112.86,35.79,151.17-20.68Z"/>
  <path class="cls-1" d="m.24,10.48h79.45v130.9c7.76-2.76,14.25-5.04,20.72-7.38,19.32-7.01,38.57-14.21,57.99-20.91,3.32-1.15,7.73-1.28,11-.11,50.98,18.29,101.86,36.87,152.76,55.39,3.42,1.25,6.36,2.17,6.34,7.25-.22,55.42-.15,110.83-.18,166.25,0,.92-.28,1.84-.5,3.12h-79.77c0-3,0-5.59,0-8.19,0-36.06-.1-72.12.11-108.17.03-5.12-1.38-7.68-6.42-9.45-24.41-8.57-48.63-17.67-73.03-26.26-2.86-1.01-6.71-.97-9.58.05-24.39,8.61-48.62,17.69-73.02,26.28-4.69,1.65-6.21,3.87-6.18,8.83.22,36.06.12,72.11.12,108.17,0,2.83,0,5.66,0,8.8H.24V10.48Z"/>
  <path class="cls-1" d="m113.71,574.49H21.01v-57.97c-5.39,2.18-9.76,3.95-14.91,6.04-1.98-3.62-3.89-7.1-6.1-11.13,15.54-6.39,30.34-13.13,43.58-25.96H6.18v-11.36h53.77v-11.63c-5.8,0-11.73-.05-17.65.01-5.08.05-10.16.31-15.24.33-10.31.05-10.31,0-11.24-12.23,8.21,0,16.38.41,24.49-.08,21.48-1.3,42.95-2.88,64.4-4.58,10.5-.83,10.48-1.08,12.62,10.85-11.29,1.09-22.51,2.32-33.75,3.21-11.24.9-11.25.75-9.39,13.37h54.47v11.45h-36.25c-.37.83-.75,1.65-1.12,2.48,6.74,4.52,13.24,9.46,20.28,13.45,7.09,4.02,14.71,7.1,22.83,10.94-1.66,3.46-3.29,6.84-5.28,11-4.99-2.02-9.73-3.94-15.41-6.24v58.02Zm-79.04-49.59v13.04h64.84v-13.04H34.67Zm-5.4-12.62h76.15c-10.69-8.99-20.99-17.66-32.37-27.22v23.7h-12.96v-22.79c-10.67,9.1-20.64,17.61-30.83,26.31Zm5.2,50.87h65.05v-13.04H34.47v13.04Z"/>
  <path class="cls-1" d="m198.8,578.4c-4.96-1.86-8.32-3.13-11.71-4.4,4.92-15.61,9.76-30.96,14.83-47.03,3.29,1,6.8,2.08,11.52,3.52-1.61-2.76-2.59-4.44-3.05-5.23,9.88-9.21,19.27-17.96,28.66-26.71-.43-.86-.87-1.72-1.3-2.57h-21.33v-10.99h21.64v-16.19h-14.96v-11.01c4.91-.21,9.85-.43,15.19-.67.24-4.88.44-9.16.69-14.36,3.58-.17,7.05-.33,11.31-.52.4,5.1.77,9.77,1.16,14.83h26.19v-14.18h12.49v14.39h21.96v11.14h-21.46v16.23h25.83v11.15h-28.12c7.96,13.46,19.61,20.59,32.14,27.87-2.45,3.64-4.68,6.95-7.39,10.98-5.83-3.87-11.35-7.53-18.03-11.97v24.74h-53.29c-3.08,14.36-1.06,17.13,12.17,17.28,9.44.11,18.88.12,28.32-.07,11.85-.24,12-.48,13.93-11.85.28-1.65.66-3.28,1.18-5.88,3.71.86,7.26,1.68,11.84,2.74-1.42,6.48-1.9,12.67-4.29,18-1.41,3.14-5.78,6.85-8.95,6.99-18.56.78-37.18,1.1-55.74.47-8.18-.28-11.31-5.09-11.59-13.91-.28-8.71-.09-17.43-.15-26.14-.02-2.31-.2-4.63-.31-7.12-5.4.67-7.88,9.99-14.2,3.56-5.06,15.64-10.01,30.94-15.18,46.93Zm83.96-55.28c-10.92,0-21.46,0-32.01,0-11.33,0-11.58.35-9.13,12.47h41.14v-12.47Zm.55-11.81c-5.29-5.12-4.17-14.75-14.75-15.82-13.19-1.33-19.87,4.66-24.57,15.82h39.32Zm-31.68-42.26v15.21h25.86v-15.21h-25.86Z"/>
  <path class="cls-1" d="m384.19,475.83c-3.09-2.59-5.24-4.39-7.09-5.94,6.04-9.98,11.89-19.64,17.99-29.7,2.71.7,5.7,1.47,9.47,2.44-1.05,3.4-2,6.48-3.25,10.54h38.4v9.86h-21.01c-.31,4.57-.58,8.46-.91,13.43,6.34,0,11.82,0,17.3,0,8.74.02,8.78.08,7.29,10.18h-25.18c-.1.56-.2,1.12-.3,1.67,8.81,5.16,17.63,10.33,26.82,15.71-2.4,3.55-4.39,6.5-6.6,9.76-8.36-5.24-16.29-10.21-24.22-15.18-5.87,5.39-11.47,10.53-17.92,16.46h90.02v59.58h-92.33v-57.9c-5.22,1.64-9.54,4.23-13.52,3.78-2.24-.26-3.89-5.55-6.28-9.3,11.81-5.8,23.96-10.53,30.85-24.18h-28.36v-9.93c2.49-.36,5.02-.73,8.83-1.29Zm21.44,87.9h66.5v-12.78h-66.5v12.78Zm.15-24.31h66.46v-12.51h-67.01c0,3.27-.05,5.91.02,8.55.03,1.19.3,2.37.52,3.97Zm.07-75.3c-11.47-1.59-13.31-.35-18.12,11.73h18.12v-11.73Z"/>
  <path class="cls-1" d="m1558.69,533.75v43.72h-13.68v-43.34h-49.77v-64.06h49.61v-27.33c2.47-.27,4.12-.38,5.76-.63,6.12-.93,8.9,1.08,8.25,7.81-.6,6.2-.13,12.51-.13,19.68h50.81c0,20.68.12,40.45-.26,60.2-.03,1.35-3.75,3.72-5.8,3.76-14.49.33-28.98.17-44.8.17Zm-50.04-50.86v37.33h35.74v-37.33h-35.74Zm50.4,37.23h36.2v-37.02h-36.2v37.02Z"/>
  <path class="cls-1" d="m792.53,462.77v-9.87h27.1c.36-4.04.65-7.32.97-10.97h10.06c.27,3.28.54,6.56.89,10.82h31.44v19.91c4.16.41,7.65.75,11.43,1.12v9.13c-3.64.25-6.94.48-10.93.75v19.64h-31.84v10.69h33.71v10.5h-33.72v10.5h39.11v10.5h-39.18c-.29,4.7-.53,8.66-.8,13.06h-10.22c-.25-3.86-.51-7.83-.81-12.55h-35.28v-10.57h35.05v-10.79h-28.11v-10.34h28.31v-10.62h-27.2v-9.89h27.18v-10.36h-32.48v-9.96h32.44v-10.69h-27.11Zm58.96,30.63v-9.68h-19.89v9.68h19.89Zm.18-30.16h-19.98v9.62h19.98v-9.62Z"/>
  <path class="cls-1" d="m1216.92,517.07h-22.01c-.58,23.27-5.57,44.82-21.85,62.62-1.26-.66-2.59-1.22-3.75-2-2.19-1.47-4.28-3.08-7.16-5.16,14.98-15.49,20.6-34.13,20.27-55.71h-14.87v-12.23h15.12v-41.36c-3.46-.4-6.5-.75-9.91-1.14v-10.78h71.48v11.2h-14.53v41.78h17.03v12.4h-17.35v61.14h-12.47v-60.76Zm-21.13-13.04h20.58v-40.89h-20.58v40.89Z"/>
  <path class="cls-1" d="m745.25,515.84c4.39-1.71,7.22-2.8,10.39-4.04,2.91,7.24,5.63,14,8.35,20.76.72-.06,1.45-.12,2.17-.18,2.48-9.13,4.96-18.26,7.7-28.32h-26.71c-1.83-6.2-1.33-10.77,3.22-15.49,7.16-7.44,13.39-15.77,21.21-25.15h-25.54v-11h38.42c1.88,6.49.87,11.92-3.5,16.94-6.42,7.39-12.56,15.02-19.7,23.61h23.14c0,4.75.74,8.94-.14,12.74-2.61,11.28-5.26,22.62-9.13,33.51-1.9,5.33-.78,7.87,3.25,10.77,14.45,10.41,31.24,12.6,48.22,13.3,15.86.65,31.76.14,48.37.14-.53,3.5-1.09,7.2-1.78,11.77-36.5.24-73.45,5.5-105.69-18.89-5.87,7.26-11.73,14.51-18.23,22.55-3.42-3.15-6.32-5.82-9.14-8.41,5.52-6.83,10.61-13.23,15.83-19.52,2.66-3.2,2.56-5.78.5-9.65-4.16-7.83-7.24-16.23-11.21-25.42Z"/>
  <path class="cls-1" d="m1309.7,466.93c1.84-2.44,3.52-4.68,5.79-7.7-3.13-.36-5.56-.65-8.14-.95v-9.72h57.08c2.25,18.87-14.58,25.38-23.85,37.45,2.88.35,5.55.67,8.74,1.06v32.27h-26.61c-.62,4.1-1.14,7.57-1.79,11.92h27.39c-.68,11.85-1.08,22.89-2.02,33.88-.54,6.36-4.74,9.91-10.95,10.76-4.31.59-8.67.87-13.02,1.03-10.33.38-10.36.29-10.59-11.63,5.51,0,11.08.45,16.5-.22,2.14-.27,5.31-2.79,5.69-4.74,1.05-5.38.87-10.99,1.25-17.61h-26.74c.98-10.95,1.68-20.79,2.96-30.56.18-1.37,3.13-3.27,4.9-3.37,6.69-.4,13.41-.16,20.5-.16v-10.88c-8.57-2.06-16.09-.27-23.66,3.89-10.03,5.51-10.24,5.13-14.55-5.79,9.21-4.59,18.45-9.2,29.18-14.55-6.71-5.33-12.26-9.75-18.07-14.37Zm7.58-7.84c7.43,5.51,13.37,9.91,19.86,14.71,4.43-4.68,8.62-9.12,13.91-14.71h-33.76Z"/>
  <path class="cls-1" d="m1168.1,450.93v11.94c-4.93,0-9.67-.25-14.36.13-1.74.14-4.41,1.42-4.86,2.78-2.77,8.43-5.04,17.03-7.72,26.47h22.23v72.99h-36.7v-42.85c-3.16,3.69-4.96,5.8-7.1,8.3-2.9-2.59-5.54-4.96-8.6-7.69,11.97-18.38,21.43-37.49,25.88-59.78h-18.72v-12.29h49.95Zm-16.94,103.16v-48.78c-12.34-2.48-12.76-2.14-12.74,9.64,0,4.59,0,9.18,0,13.77,0,8.37,0,16.74,0,25.37h12.74Z"/>
  <path class="cls-1" d="m567.66,492.95h53.4c.19,2.07.55,4.13.55,6.19.03,20.3.05,40.6-.02,60.89-.05,13.41-7.88,20.19-21.03,16.84-2.84-.72-4.24-7.07-6.62-11.41q16.53-2.13,14.97-16.97h-29.74v28.26h-11.52v-83.81Zm41.5,11.17c-7.84,0-14.82-.01-21.8,0-9.19.02-9.87.99-7.04,10.11h28.85v-10.12Zm-28.98,22.18c-.81.59-1.63,1.19-2.44,1.78,1.68,2.89,3.11,8.06,5.07,8.27,8.55.92,17.26.39,26.3.39v-10.45h-28.93Z"/>
  <path class="cls-1" d="m967.52,500.08v-10.5h41.07v-15.41c-12.62-1.7-25.46-4.6-29.4,13.68-4.49-2.55-7.75-4.4-10.6-6.02,5.33-11.76,10.39-22.93,15.83-34.94,2.94.82,6.28,1.76,10.41,2.92-1.19,4.1-2.23,7.69-3.46,11.92h17.27v-17.96c4.3-.21,7.98-.39,12.63-.61v19.13h33.04v10.83h-32.4v16.21h37.39v10.74h-91.78Z"/>
  <path class="cls-1" d="m1434.42,493.02c-1.52,3.34-2.91,6.38-4.7,10.31-7.75-3.18-15.19-6.23-22.7-9.31q-2.46,14.13,17.95,15.54c.72,10.4.3,10.88-9.49,10.71-19.51-.33-19.61-.43-21.88-22.64h-18.95c.18,11.11-3.16,20.19-14.65,25.23-2.08-2.4-4.35-5.04-7.34-8.49,13.31-5.02,8.5-17.04,10.08-27.7h32.19c-14.53-12.38-23.63-25.86-29-41.74,12.16-7.7,12.52,4.66,17.76,10.16,7.45-4.27,14.88-8.52,22.72-13.01,1.87,2.48,3.72,4.93,6.34,8.4-7.87,4.65-15.22,8.99-23.36,13.8,2.32,2.66,4.44,5.09,6.97,8,8.31-4.53,16.31-8.89,24.89-13.56,1.64,2.47,3.31,4.99,5.4,8.15-7.04,4.18-13.56,8.05-21.59,12.82,10.4,4.73,19.5,8.86,29.34,13.34Z"/>
  <path class="cls-1" d="m1061.76,562.02c-.62,4.45-1.15,8.26-1.86,13.42-36.8-.37-74.22,6.2-107.84-17.42-4.84,6.22-9.85,12.65-15.44,19.84-3.16-3.61-5.96-6.81-9.03-10.32.49-.69.99-1.87,1.87-2.56,20.22-15.78,16.33-37.74,15.39-59.72h-15.53v-12.24h28.69c0,5.38,0,10.6,0,15.81,0,8.96.76,18-.21,26.85-1.03,9.38,3.02,15.12,10.98,17.83,10.2,3.47,20.69,7.4,31.27,8.15,18.52,1.31,37.21.36,55.82.36,1.66,0,3.32,0,5.88,0Z"/>
  <path class="cls-1" d="m1763.87,532.59c5.1,1.51,9.2,2.72,14.24,4.21-1.17,8.32-1.98,16.44-3.53,24.4-1.31,6.76-5.67,11.81-12.68,12.2-13.46.76-27.05,1.47-40.45.48-11.12-.83-15.16-6.7-15.31-19.14-.28-22.74-.11-45.49-.13-68.24,0-4.54,0-9.08,0-14.07h14.05c0,15.03,0,29.73,0,44.43,0,11.13.18,22.27-.05,33.39-.14,7.09,3.19,10.27,10,10.29,7.5.02,15-.04,22.5-.05,5.83,0,8.99-3.02,9.59-8.7.63-5.98,1.11-11.97,1.77-19.22Z"/>
  <path class="cls-1" d="m1048.55,510.79v41.66h-70.96v-41.66h70.96Zm-12.71,30.15v-18.93h-45.51v18.93h45.51Z"/>
  <path class="cls-1" d="m1361.36,535.82c7.24,3.09,13.82,5.1,19.53,8.54,6.33,3.81,10.62,2.46,14.67-2.9,1.41-1.88,3-3.62,5.55-6.68h-44.85v-10.31h61.82c-2.44,6.16-3.88,11.56-6.61,16.19-2.76,4.69-6.81,8.62-10.55,13.19,8.78,5.19,17.23,10.18,26.09,15.42-2.3,3.64-4.19,6.64-6.37,10.1-8.51-5.04-16.82-9.77-24.91-14.85-3.45-2.16-5.94-2.18-9.75-.11-9.67,5.25-19.83,9.58-30.14,14.44-2.29-4.48-3.91-7.65-5.8-11.33,9.24-3.7,18.06-7.23,29-11.61-8.52-4.13-15.05-7.3-22.19-10.76,1.42-2.94,2.74-5.65,4.52-9.34Z"/>
  <path class="cls-1" d="m645.4,532.85c12.71-6.73,23.54-12.47,35.24-18.67,1.86,2.99,3.92,6.28,6.91,11.07-12.52,6.16-24.05,12.7-36.26,17.51-7.82,3.08-5.47,8.51-5.53,13.6-.07,5.87,4.5,5.86,8.7,6.2q19.73,1.6,24.59-19.55c11.1.89,11.87,1.82,10.3,12.37-2.25,15.12-4.49,17.65-19.64,18.74-8.39.6-16.88-.11-25.32-.4-7.38-.25-11.07-4.6-11.15-11.63-.2-17.13-.07-34.26-.07-51.98h12.24v22.75Z"/>
  <path class="cls-1" d="m633.04,443.23h12.3v23.09c12.4-5.83,23.19-10.89,34.48-16.2,1.74,3.02,3.53,6.11,5.97,10.35-4.3,2.34-8.33,4.78-12.55,6.78-7.21,3.4-14.33,7.19-21.88,9.58-6.61,2.09-6.06,6.36-5.57,11.27.55,5.48,4.71,5.29,8.61,5.5.97.05,1.93.05,2.9.07q17.71.32,21.03-18.71c4,2.54,9.45,4.04,10.48,7.06,2.65,7.7-3.04,20.65-9.49,21.25-12.84,1.2-25.9,1.05-38.78.16-2.59-.18-5.1-6-7-9.56-.93-1.74-.47-4.26-.47-6.43-.03-14.46-.02-28.93-.02-44.19Z"/>
  <path class="cls-1" d="m497.23,453.01v52.36h-48.92v-52.36h48.92Zm-36.83,10.83v30.43h24.99v-30.43h-24.99Z"/>
  <path class="cls-1" d="m563.18,485.37c-2.87-6.72-2.16-10.41,3.1-15.48,8.38-8.08,14.54-18.46,22.22-28.64,2.88,1.38,6.48,3.1,11.16,5.33-6.68,8.98-12.95,17.41-20.17,27.11,9.77-.64,18.62-1.23,28.89-1.91-3.42-4.79-6.03-8.44-8.96-12.55,2.6-2.04,5.19-4.08,8.89-6.99,7.65,9.75,15.13,19.27,23.1,29.42-3.87,2.89-6.85,5.11-10.72,8-2.54-9.1-8.79-7.38-15.2-6.84-14.15,1.2-28.35,1.74-42.3,2.54Z"/>
  <path class="cls-1" d="m1669.84,542.93c5.72-19.77,11.21-38.7,16.86-58.22,3.71.69,7.64,1.43,13.55,2.53-5.81,20.28-11.45,39.95-17.29,60.33-5.34-1.89-9.12-3.22-13.12-4.64Z"/>
  <path class="cls-1" d="m1770.44,487.01c3.62-1.64,7.08-3.21,12.16-5.51,8.3,18.61,16.47,36.93,24.93,55.91-5.03,2.48-8.81,4.35-12.78,6.3-8.12-18.93-16.03-37.4-24.31-56.7Z"/>
  <path class="cls-1" d="m1720.28,449.08c3.15-2.39,6.16-4.68,10.42-7.92,10.73,14.46,21.11,28.45,31.96,43.07-4.49,3.53-8.14,6.4-11.69,9.2-10.28-14.86-20.23-29.25-30.69-44.35Z"/>
  <path class="cls-1" d="m965.13,471.99c-4.03,3.31-7.29,6-10.71,8.81-6.97-8.92-13.61-17.42-20.85-26.69,2.8-2.43,5.77-5.01,9.65-8.38,7.32,8.78,14.44,17.31,21.91,26.26Z"/>
  <path class="cls-1" d="m183.82,488.31c2.55-3.24,4.88-6.2,7.7-9.8,8,6.54,15.56,12.71,23.79,19.44-2.88,3.69-5.31,6.81-8.13,10.44-7.87-6.77-15.42-13.26-23.36-20.08Z"/>
  <path class="cls-1" d="m189.47,453.33c2.53-3.04,4.64-5.58,7.48-9,8.11,6.48,15.92,12.71,24.47,19.53-2.78,3.47-5.12,6.38-7.78,9.7-8.01-6.7-15.69-13.13-24.16-20.22Z"/>
  <rect class="cls-1" x="247.51" y="9.85" width="81.35" height="81.35"/>
</svg>