<?xml version="1.0" encoding="utf-8"?>
<!-- Generator: Adobe Illustrator 27.2.0, SVG Export Plug-In . SVG Version: 6.00 Build 0)  -->
<svg version="1.1" id="图层_1" xmlns="http://www.w3.org/2000/svg" xmlns:xlink="http://www.w3.org/1999/xlink" x="0px" y="0px"
	 viewBox="0 0 1920 1080" style="enable-background:new 0 0 1920 1080;" xml:space="preserve">
<style type="text/css">
	.st0{fill:#C7C7C7;}
	.st1{fill:#FFFFFF;}
</style>
<g>
	<path class="st0" d="M1920,1053.58c-640,0-1280,0-1920,0C0,711.19,0,368.81,0,26.42c640,0,1280,0,1920,0
		C1920,368.81,1920,711.19,1920,1053.58z M1109.75,724.54c1.09,4.33,1.92,6.35,2.08,8.42c2.14,28.27,4.71,56.51,6.12,84.82
		c1.75,35.25,2.42,70.56,3.77,105.83c0.53,13.94,5.94,17.23,24.7,15.89c9.23-0.66,11.31-4.12,10.31-17.01
		c-2.47-31.71-5.37-63.4-7.29-95.15c-3.17-52.19-5.82-104.42-8.36-156.65c-0.37-7.68-3.58-10.95-10.83-11
		c-7.88-0.06-15.81-0.59-23.61,0.19c-3,0.3-7.33,3.07-8.26,5.7c-7.1,20.05-12.8,40.61-20.31,60.49
		c-9.62,25.46-20.51,50.44-30.87,75.63c-8.57,20.84-17.09,41.71-25.85,62.48c-1.08,2.57-3.48,4.59-5.27,6.87
		c-2.02-2.37-4.9-4.43-5.91-7.17c-5.94-16.18-11.29-32.57-17.13-48.79c-8.07-22.39-16.65-44.6-24.53-67.05
		c-8.2-23.36-15.38-47.09-23.87-70.35c-6.7-18.36-7.27-18.16-27.32-18.15c-2.52,0-5.05,0.13-7.56,0.03
		c-9.01-0.35-12.97,3.42-12.94,12.93c0.05,18.27,0.01,36.62-1.66,54.79c-3.64,39.5-8.05,78.93-12.69,118.32
		c-3.17,26.85-7.16,53.62-11.05,80.38c-1.13,7.76,1.31,12.41,9.3,13.16c4.37,0.41,8.81,0.17,13.22,0.18
		c7.37,0.03,10.7-3.9,11.34-11.04c1.94-21.62,4.15-43.21,6.12-64.83c3.31-36.37,6.48-72.75,9.81-109.11
		c0.55-5.96,1.36-11.91,2.52-17.77c0.59-2.96,2.24-5.7,4.45-11.05c4.61,13.65,7.96,24.36,11.84,34.88
		c10.51,28.51,21.7,56.78,31.78,85.44c9.87,28.09,18.88,56.5,27.86,84.9c2.27,7.17,6.53,9.21,13.37,8.84
		c7.23-0.39,14.02-0.94,16.38-9.59c2.38-8.75,4.4-17.66,7.53-26.14c8.14-22.01,16.64-43.89,25.33-65.69
		c7.77-19.51,15.93-38.86,24.03-58.24C1093.73,762.13,1101.34,744.39,1109.75,724.54z M984.16,383.93
		c11.38,18.15,20.66,33.36,30.45,48.23c1.96,2.97,5.62,6.1,8.91,6.65c6.44,1.08,13.18,0.51,19.79,0.42c6.94-0.1,9.1-4.21,6.82-10.09
		c-2.6-6.69-5.41-13.53-9.45-19.39c-11.05-16.01-23.09-31.33-34.02-47.41c-2.39-3.52-3.42-9.57-2.24-13.64
		c5.28-18.34,12.42-36.17,17.29-54.61c5.78-21.87,3.4-24.19-18.61-23.96c-0.63,0.01-1.26,0-1.89,0.02
		c-12.89,0.26-12.92,1.19-14.36,14.09c-1.72,15.35-5.01,30.52-7.89,47.31c-24.1-18.82-46.12-35.95-68.07-53.19
		c-6.74-5.29-6.28-8.24,0.91-13.32c12.55-8.87,23.74-18.25,30.96-33.07c9.43-19.33,2.04-47.4-13.77-59.69
		c-23.75-18.47-50.1-20.79-77.6-11.32c-24.78,8.53-37.64,32.87-37.29,54.83c0.23,14.13,6.17,26.88,16.48,36.95
		c5.1,4.98,10.89,9.26,18.89,15.96c-5.73,4-8.65,6.38-11.87,8.24c-25.38,14.68-42.27,34.79-48.46,64.72
		c-3.82,18.47-2.28,35.9,5.01,51.57c15.68,33.68,44.48,51.37,81.11,52.19c33.55,0.76,63.25-11.62,86.64-36.75
		C968.73,401.34,975.31,393.79,984.16,383.93z M1218.43,379.58c-0.52,0-1.04,0-1.56,0c0-16.38,0.08-32.77-0.04-49.15
		c-0.05-6.76,2.18-10.94,9.72-10.78c16.37,0.34,32.75,0.46,49.13,0.86c13.08,0.32,24.03,7.39,29.84,17.43
		c13.6,23.49,26.53,47.68,36.48,72.87c10.31,26.12,11.04,28.96,32.15,28.58c11.32-0.21,13.75-4.23,9.17-14.96
		c-8.23-19.28-16.69-38.47-24.5-57.93c-8.85-22.04-19.36-42.98-37.77-58.66c-6.24-5.31-4.46-9.14,0.69-12.62
		c19.69-13.29,29.12-32.7,32.22-55.27c3.54-25.77-4.55-55-30.51-67.56c-14.05-6.8-30.09-11.68-45.58-12.83
		c-26.94-1.99-54.15-0.46-81.25-0.31c-13.54,0.08-14.8,1.13-14.35,14.65c0.91,27.39,3.32,54.77,3.12,82.14
		c-0.38,52.59-2.25,105.17-3.3,157.75c-0.56,28.4-3.43,25.24,25.73,25.55c7.66,0.08,10.81-2.99,10.68-10.67
		C1218.25,412.34,1218.43,395.96,1218.43,379.58z M569.36,788.4c-0.23,44.45,5.53,72.86,21.08,98.54
		c21.23,35.07,53.3,54.88,93.33,59.67c34.78,4.16,65.69-8.1,91.79-31.08c29.73-26.18,44.93-59.67,47.29-99.2
		c2.19-36.57,0.15-71.79-20.68-104.2c-21.6-33.61-52.38-52.55-90.62-57.34c-39.03-4.89-72.81,10.02-100.45,37.65
		C580.64,722.89,569.93,761.13,569.36,788.4z M323.99,799.05c-0.57,0.01-1.15,0.02-1.72,0.03c0,11.65,0.26,23.31-0.05,34.96
		c-0.83,30.55-2.06,61.09-2.69,91.65c-0.08,3.99,1.91,11.2,3.81,11.51c9.13,1.47,18.83,2.37,27.72,0.53
		c2.55-0.53,4.32-10.87,4.32-16.71c0.01-34.35-0.48-68.7-1.11-103.04c-0.16-8.59,2.99-11.44,11.73-11.33
		c34.34,0.44,68.7,0.33,103.04,0c7.69-0.07,11.08,2.4,10.89,10.23c-0.35,14.49-0.29,28.99-0.43,43.49
		c-0.22,21.74-0.65,43.49-0.64,65.23c0,12.33,1.95,13.91,14.47,13.95c1.58,0.01,3.15,0.01,4.73-0.02
		c14.88-0.3,17.13-2.31,16.57-17.19c-0.95-25.49-3.47-50.98-3.3-76.45c0.37-54.49,2.02-108.97,3.19-163.45
		c0.5-23.06,0.55-23.06-22.98-22.89c-12.01,0.09-13.02,1.01-12.88,12.97c0.36,31.2,0.62,62.4,1.34,93.59
		c0.2,8.67-2.18,12.39-11.67,12.26c-34.03-0.48-68.08-0.44-102.11-0.02c-9.08,0.11-12.23-2.88-11.99-11.94
		c0.75-28.35,0.9-56.72,1.26-85.08c0.28-22.09,0.26-22.09-22-21.74c-13.42,0.21-14.54,1.18-14.07,14.8
		C320.85,715.93,322.45,757.49,323.99,799.05z M1317.51,939.54c23.63,0,47.27,0.1,70.9-0.04c13.2-0.08,17.37-5.98,16.49-22.55
		c-0.53-10.05-4-12.28-17.03-11.74c-35.87,1.48-71.74,2.93-107.63,4.14c-12.02,0.41-12.96-0.64-13.05-12.65
		c-0.19-26.47,0.03-52.94-0.31-79.41c-0.1-7.69,2.39-10.59,10.4-10.35c22.36,0.68,44.74,0.62,67.11,0.9
		c22.09,0.28,23.69-1.52,21.33-23.49c-0.83-7.76-4.5-10.63-12.57-10.15c-24.82,1.48-49.7,2-74.53,3.42
		c-8.91,0.51-11.67-3.19-11.61-11.46c0.16-20.48-0.13-40.96-0.23-61.45c-0.07-14.99-0.06-15.04,15.23-14.99
		c31.83,0.11,63.65,0.44,95.48,0.25c4.33-0.03,11.82-1.7,12.39-3.98c1.76-7.04,2.18-15.08,0.36-22.01
		c-0.66-2.52-9.08-4.19-13.97-4.23c-42.22-0.33-84.45-0.21-126.68-0.19c-17.62,0.01-18.39,1.4-17.6,19.01
		c1.87,41.53,4.46,83.08,4.42,124.62c-0.04,39.65-3.14,79.3-4.66,118.96c-0.55,14.44,2.31,17.26,16.73,17.35
		C1271.5,939.64,1294.51,939.54,1317.51,939.54z M1493.26,945.25c27-1.49,49.55-3.3,69.7-13.74c41.57-21.53,51.79-81.1,20.26-115.96
		c-16.91-18.7-40.11-27.26-62.53-37.09c-14.83-6.5-29.65-13.36-43.51-21.67c-15.88-9.53-19.06-25.48-14.77-42.18
		c3.74-14.56,14.59-22.14,29.55-25.52c24.86-5.61,48.83-0.56,72.9,4.01c9.9,1.88,13.47,0.31,15.25-9.55
		c0.56-3.1,0.94-6.23,1.38-9.35c1.12-8.01-2.02-12.53-10.35-13.65c-11.86-1.58-23.62-3.83-35.48-5.4
		c-20.65-2.75-41.23-1.06-60.18,7.22c-23.73,10.37-40.54,27.09-45.6,54.53c-4.63,25.11,7.41,57.78,29.84,69.19
		c21.15,10.76,43.47,19.2,64.75,29.71c17.77,8.78,36.09,16.4,42.8,39.09c5.97,20.19-3.07,50.86-30.58,55.02
		c-29.77,4.5-59.45,5.95-88.52-4.8c-4.12-1.52-12.24-2.44-13.12-0.78c-4,7.53-7.75,16.03-8.02,24.3
		c-0.11,3.39,8.42,9.32,13.68,10.21C1459.58,942.05,1478.75,943.59,1493.26,945.25z M639.98,264.28c0.57,0,1.14,0,1.72,0
		c0-29.94-0.02-59.89,0.01-89.83c0.01-14.18-0.87-15.12-14.86-15.2c-21.49-0.12-21.9,1.01-21.08,22.46
		c1.88,49.42,3.76,98.86,4.14,148.31c0.13,17.09-3,34.49-6.95,51.2c-1.87,7.89-7.67,16.7-14.32,21.24
		c-19.21,13.12-40.96,17.3-63.7,9.98c-22.38-7.2-27.91-3.3-25.33,19.59c0.31,2.78,2.96,6.82,5.39,7.62
		c29.3,9.55,58.54,8.25,86.77-3.71c31.19-13.21,44.95-40.35,47.59-71.51C642.15,331.26,639.98,297.68,639.98,264.28z"/>
	<path class="st1" d="M1109.75,724.54c-8.42,19.84-16.02,37.59-23.47,55.4c-8.1,19.37-16.26,38.73-24.03,58.24
		c-8.69,21.8-17.19,43.68-25.33,65.69c-3.14,8.48-5.15,17.39-7.53,26.14c-2.35,8.64-9.15,9.19-16.38,9.59
		c-6.84,0.37-11.1-1.66-13.37-8.84c-8.98-28.4-17.99-56.8-27.86-84.9c-10.07-28.66-21.26-56.93-31.78-85.44
		c-3.88-10.52-7.23-21.23-11.84-34.88c-2.21,5.35-3.86,8.1-4.45,11.05c-1.16,5.86-1.97,11.82-2.52,17.77
		c-3.33,36.37-6.5,72.75-9.81,109.11c-1.97,21.62-4.17,43.21-6.12,64.83c-0.64,7.13-3.97,11.06-11.34,11.04
		c-4.41-0.02-8.84,0.23-13.22-0.18c-7.99-0.76-10.43-5.4-9.3-13.16c3.89-26.76,7.88-53.53,11.05-80.38
		c4.65-39.39,9.05-78.83,12.69-118.32c1.67-18.17,1.71-36.52,1.66-54.79c-0.02-9.51,3.93-13.28,12.94-12.93
		c2.52,0.1,5.04-0.03,7.56-0.03c20.04-0.01,20.62-0.22,27.32,18.15c8.48,23.26,15.66,46.98,23.87,70.35
		c7.88,22.45,16.47,44.66,24.53,67.05c5.84,16.22,11.19,32.61,17.13,48.79c1.01,2.74,3.89,4.8,5.91,7.17
		c1.79-2.28,4.19-4.3,5.27-6.87c8.76-20.77,17.28-41.64,25.85-62.48c10.36-25.18,21.26-50.16,30.87-75.63
		c7.51-19.88,13.21-40.44,20.31-60.49c0.93-2.63,5.26-5.4,8.26-5.7c7.8-0.78,15.73-0.25,23.61-0.19c7.26,0.05,10.46,3.32,10.83,11
		c2.54,52.23,5.2,104.46,8.36,156.65c1.93,31.75,4.82,63.44,7.29,95.15c1.01,12.89-1.08,16.35-10.31,17.01
		c-18.76,1.34-24.17-1.96-24.7-15.89c-1.35-35.27-2.02-70.58-3.77-105.83c-1.41-28.3-3.98-56.55-6.12-84.82
		C1111.67,730.89,1110.85,728.88,1109.75,724.54z"/>
	<path class="st1" d="M984.16,383.93c-8.86,9.86-15.43,17.41-22.25,24.74c-23.39,25.13-53.09,37.51-86.64,36.75
		c-36.63-0.83-65.43-18.51-81.11-52.19c-7.29-15.67-8.83-33.1-5.01-51.57c6.19-29.94,23.08-50.04,48.46-64.72
		c3.22-1.86,6.14-4.23,11.87-8.24c-8-6.71-13.78-10.98-18.89-15.96c-10.31-10.07-16.26-22.82-16.48-36.95
		c-0.35-21.96,12.51-46.3,37.29-54.83c27.5-9.47,53.85-7.14,77.6,11.32c15.81,12.29,23.2,40.36,13.77,59.69
		c-7.23,14.82-18.42,24.2-30.96,33.07c-7.18,5.08-7.64,8.03-0.91,13.32c21.94,17.23,43.96,34.36,68.07,53.19
		c2.88-16.79,6.17-31.96,7.89-47.31c1.44-12.9,1.47-13.83,14.36-14.09c0.63-0.01,1.26-0.01,1.89-0.02
		c22.01-0.22,24.39,2.09,18.61,23.96c-4.87,18.44-12.01,36.27-17.29,54.61c-1.17,4.07-0.15,10.12,2.24,13.64
		c10.92,16.09,22.97,31.41,34.02,47.41c4.04,5.86,6.86,12.7,9.45,19.39c2.28,5.88,0.12,9.99-6.82,10.09
		c-6.61,0.09-13.35,0.66-19.79-0.42c-3.3-0.55-6.96-3.68-8.91-6.65C1004.82,417.29,995.55,402.08,984.16,383.93z M820.53,356.31
		c-0.39,20.27,2.64,29.35,13.25,39.63c21.65,20.99,57.32,24.78,83.96,10.33c15.36-8.33,27.07-20.1,37.87-33.21
		c5.32-6.45,6.11-13.18-1.07-18.97c-25.88-20.84-51.8-41.62-77.87-62.22c-1.81-1.43-5.49-2.37-7.4-1.52
		C848.34,299.79,818.07,321.2,820.53,356.31z M877.06,187.23c-1.8,0.23-6.19,0.61-10.5,1.38c-12.37,2.21-18.92,10.12-19.12,22.83
		c-0.21,13.16,15.13,34.63,27.8,38.32c2.81,0.82,7.18,1.24,9-0.3c9.34-7.94,18.98-15.87,26.61-25.34
		c3.19-3.96,3.42-12.19,1.94-17.66C908.76,191.52,900.11,187.11,877.06,187.23z"/>
	<path class="st1" d="M1218.43,379.58c0,16.38-0.19,32.76,0.08,49.13c0.13,7.68-3.02,10.75-10.68,10.67
		c-29.16-0.32-26.29,2.85-25.73-25.55c1.04-52.59,2.92-105.16,3.3-157.75c0.2-27.37-2.21-54.75-3.12-82.14
		c-0.45-13.52,0.81-14.57,14.35-14.65c27.1-0.15,54.3-1.68,81.25,0.31c15.48,1.14,31.53,6.03,45.58,12.83
		c25.96,12.56,34.05,41.79,30.51,67.56c-3.1,22.57-12.54,41.98-32.22,55.27c-5.16,3.48-6.94,7.31-0.69,12.62
		c18.42,15.68,28.93,36.61,37.77,58.66c7.81,19.45,16.27,38.64,24.5,57.93c4.58,10.73,2.15,14.75-9.17,14.96
		c-21.11,0.38-21.84-2.46-32.15-28.58c-9.95-25.19-22.88-49.39-36.48-72.87c-5.82-10.05-16.76-17.11-29.84-17.43
		c-16.37-0.4-32.75-0.51-49.13-0.86c-7.54-0.16-9.77,4.02-9.72,10.78c0.13,16.38,0.04,32.77,0.04,49.15
		C1217.39,379.59,1217.91,379.59,1218.43,379.58z M1249.13,186.55c-0.15,0.81-0.29,1.62-0.44,2.42c-7.87,0-15.75,0.05-23.62-0.02
		c-5.25-0.04-8.42,1.97-8.42,7.68c0.01,27.08-0.34,54.17,0.31,81.24c0.09,3.74,4.88,10.42,7.76,10.57
		c24.82,1.29,49.72,1.88,72.49-11.1c19.19-10.94,30.27-39.47,22.23-59.98c-3.8-9.7-9.27-19.14-20.63-21.57
		C1282.35,192.29,1265.7,189.6,1249.13,186.55z"/>
	<path class="st1" d="M569.36,788.4c0.57-27.26,11.28-65.51,41.74-95.95c27.65-27.64,61.42-42.55,100.45-37.65
		c38.24,4.79,69.01,23.73,90.62,57.34c20.83,32.41,22.87,67.63,20.68,104.2c-2.36,39.52-17.56,73.01-47.29,99.2
		c-26.09,22.98-57.01,35.25-91.79,31.08c-40.03-4.79-72.11-24.6-93.33-59.67C574.9,861.25,569.14,832.84,569.36,788.4z
		 M792.02,811.02c0.32-38.15-4.94-63.25-19.52-86.07c-21.67-33.91-71.86-54.85-113.26-32.94c-28.44,15.05-45.46,40.4-52.27,71.45
		c-4.77,21.76-5.93,43.85-2.23,66.56c6.62,40.57,26.99,68.46,66.01,82.6c33.45,12.12,61.82,3.46,86.32-20.45
		C783,866.85,791.2,834.49,792.02,811.02z"/>
	<path class="st1" d="M323.99,799.05c-1.54-41.56-3.14-83.11-4.57-124.67c-0.47-13.62,0.65-14.59,14.07-14.8
		c22.26-0.35,22.28-0.35,22,21.74c-0.35,28.36-0.51,56.73-1.26,85.08c-0.24,9.06,2.91,12.05,11.99,11.94
		c34.03-0.42,68.08-0.46,102.11,0.02c9.49,0.13,11.87-3.59,11.67-12.26c-0.72-31.19-0.98-62.39-1.34-93.59
		c-0.14-11.95,0.87-12.88,12.88-12.97c23.53-0.17,23.48-0.17,22.98,22.89c-1.17,54.48-2.82,108.96-3.19,163.45
		c-0.17,25.47,2.35,50.96,3.3,76.45c0.55,14.88-1.7,16.9-16.57,17.19c-1.58,0.03-3.15,0.03-4.73,0.02
		c-12.52-0.05-14.47-1.62-14.47-13.95c0-21.74,0.42-43.49,0.64-65.23c0.15-14.5,0.09-29,0.43-43.49c0.19-7.83-3.2-10.31-10.89-10.23
		c-34.35,0.33-68.7,0.43-103.04,0c-8.74-0.11-11.89,2.75-11.73,11.33c0.63,34.34,1.12,68.69,1.11,103.04
		c0,5.84-1.77,16.18-4.32,16.71c-8.89,1.84-18.59,0.94-27.72-0.53c-1.9-0.31-3.89-7.52-3.81-11.51c0.63-30.56,1.87-61.1,2.69-91.65
		c0.31-11.64,0.05-23.3,0.05-34.96C322.84,799.07,323.41,799.06,323.99,799.05z"/>
	<path class="st1" d="M1317.51,939.54c-23,0-46.01,0.1-69.01-0.04c-14.42-0.09-17.28-2.91-16.73-17.35
		c1.52-39.66,4.62-79.31,4.66-118.96c0.04-41.54-2.55-83.09-4.42-124.62c-0.79-17.61-0.02-19.01,17.6-19.01
		c42.23-0.02,84.45-0.14,126.68,0.19c4.89,0.04,13.31,1.71,13.97,4.23c1.82,6.93,1.4,14.97-0.36,22.01
		c-0.57,2.28-8.06,3.96-12.39,3.98c-31.82,0.19-63.65-0.14-95.48-0.25c-15.29-0.05-15.3,0.01-15.23,14.99
		c0.09,20.48,0.38,40.97,0.23,61.45c-0.06,8.28,2.7,11.97,11.61,11.46c24.83-1.42,49.71-1.94,74.53-3.42
		c8.08-0.48,11.74,2.39,12.57,10.15c2.36,21.97,0.76,23.77-21.33,23.49c-22.37-0.28-44.75-0.21-67.11-0.9
		c-8.01-0.25-10.5,2.65-10.4,10.35c0.34,26.47,0.12,52.94,0.31,79.41c0.09,12.01,1.03,13.05,13.05,12.65
		c35.88-1.21,71.75-2.66,107.63-4.14c13.03-0.54,16.49,1.69,17.03,11.74c0.88,16.57-3.29,22.47-16.49,22.55
		C1364.78,939.64,1341.15,939.54,1317.51,939.54z"/>
	<path class="st1" d="M1493.26,945.25c-14.51-1.65-33.68-3.2-52.56-6.41c-5.26-0.89-13.79-6.83-13.68-10.21
		c0.27-8.27,4.02-16.77,8.02-24.3c0.88-1.66,9-0.75,13.12,0.78c29.07,10.75,58.75,9.3,88.52,4.8c27.52-4.16,36.55-34.83,30.58-55.02
		c-6.71-22.69-25.03-30.31-42.8-39.09c-21.28-10.51-43.61-18.95-64.75-29.71c-22.42-11.41-34.47-44.08-29.84-69.19
		c5.06-27.44,21.86-44.16,45.6-54.53c18.95-8.28,39.53-9.97,60.18-7.22c11.86,1.58,23.62,3.82,35.48,5.4
		c8.32,1.11,11.47,5.64,10.35,13.65c-0.44,3.12-0.81,6.25-1.38,9.35c-1.78,9.86-5.36,11.43-15.25,9.55
		c-24.06-4.57-48.04-9.62-72.9-4.01c-14.96,3.38-25.81,10.96-29.55,25.52c-4.29,16.7-1.11,32.64,14.77,42.18
		c13.85,8.32,28.67,15.17,43.51,21.67c22.42,9.83,45.62,18.39,62.53,37.09c31.54,34.86,21.31,94.43-20.26,115.96
		C1542.81,941.94,1520.26,943.76,1493.26,945.25z"/>
	<path class="st1" d="M639.98,264.28c0,33.4,2.17,66.98-0.63,100.14c-2.63,31.16-16.4,58.31-47.59,71.51
		c-28.23,11.95-57.46,13.26-86.77,3.71c-2.43-0.79-5.08-4.83-5.39-7.62c-2.58-22.89,2.95-26.79,25.33-19.59
		c22.74,7.31,44.49,3.13,63.7-9.98c6.65-4.54,12.46-13.35,14.32-21.24c3.95-16.71,7.09-34.11,6.95-51.2
		c-0.38-49.44-2.26-98.89-4.14-148.31c-0.82-21.45-0.41-22.58,21.08-22.46c13.98,0.08,14.87,1.02,14.86,15.2
		c-0.03,29.94-0.01,59.89-0.01,89.83C641.12,264.28,640.55,264.28,639.98,264.28z"/>
	<path class="st0" d="M820.53,356.31c-2.46-35.11,27.8-56.52,48.75-65.95c1.9-0.86,5.59,0.09,7.4,1.52
		c26.07,20.6,51.99,41.38,77.87,62.22c7.18,5.78,6.39,12.52,1.07,18.97c-10.8,13.1-22.52,24.88-37.87,33.21
		c-26.64,14.45-62.31,10.66-83.96-10.33C823.18,385.66,820.14,376.58,820.53,356.31z"/>
	<path class="st0" d="M877.06,187.23c23.05-0.13,31.7,4.28,35.73,19.23c1.47,5.47,1.25,13.7-1.94,17.66
		c-7.63,9.47-17.27,17.39-26.61,25.34c-1.82,1.55-6.19,1.12-9,0.3c-12.68-3.68-28.01-25.15-27.8-38.32
		c0.2-12.72,6.75-20.63,19.12-22.83C870.88,187.85,875.26,187.47,877.06,187.23z"/>
	<path class="st0" d="M1249.13,186.55c16.57,3.04,33.22,5.73,49.69,9.26c11.37,2.43,16.83,11.86,20.63,21.57
		c8.03,20.51-3.04,49.04-22.23,59.98c-22.77,12.97-47.68,12.39-72.49,11.1c-2.88-0.15-7.67-6.83-7.76-10.57
		c-0.65-27.07-0.31-54.15-0.31-81.24c0-5.71,3.17-7.73,8.42-7.68c7.87,0.06,15.74,0.02,23.62,0.02
		C1248.83,188.17,1248.98,187.36,1249.13,186.55z"/>
	<path class="st0" d="M792.02,811.02c-0.82,23.46-9.02,55.83-34.95,81.14c-24.5,23.91-52.87,32.58-86.32,20.45
		c-39.02-14.14-59.39-42.04-66.01-82.6c-3.7-22.7-2.55-44.79,2.23-66.56c6.81-31.05,23.83-56.41,52.27-71.45
		c41.4-21.9,91.59-0.97,113.26,32.94C787.08,747.77,792.34,772.88,792.02,811.02z"/>
</g>
</svg>
